<svg width="1280" height="720" xmlns="http://www.w3.org/2000/svg" xmlns:xlink="http://www.w3.org/1999/xlink" overflow="hidden"><defs><linearGradient x1="174.5" y1="357.5" x2="174.5" y2="385.5" gradientUnits="userSpaceOnUse" spreadMethod="reflect" id="fill0"><stop offset="0" stop-color="#47AADF"/><stop offset="0.5" stop-color="#05A2DF"/><stop offset="1" stop-color="#0094CE"/></linearGradient></defs><g><rect x="0" y="0" width="1280" height="720" fill="#FFFFFF"/><text fill="#0F9ED5" font-family="Aptos Display,Aptos Display_MSFontService,sans-serif" font-weight="400" font-size="59" transform="translate(421.973 124)">Exemple: scénario</text><text fill="#0F9ED5" font-family="Aptos,Aptos_MSFontService,sans-serif" font-weight="400" font-size="24" transform="translate(237.552 178)">Exemple</text><text fill="#0F9ED5" font-family="Aptos,Aptos_MSFontService,sans-serif" font-weight="400" font-size="24" transform="translate(326.666 178)">: Quand</text><text fill="#0F9ED5" font-family="Aptos,Aptos_MSFontService,sans-serif" font-weight="400" font-size="24" transform="translate(413.499 178)">l’identité</text><text fill="#0F9ED5" font-family="Aptos,Aptos_MSFontService,sans-serif" font-weight="400" font-size="24" transform="translate(509.879 178)">d’u</text><text fill="#0F9ED5" font-family="Aptos,Aptos_MSFontService,sans-serif" font-weight="400" font-size="24" transform="translate(541.912 178)">n</text><text fill="#0F9ED5" font-family="Aptos,Aptos_MSFontService,sans-serif" font-weight="400" font-size="24" transform="translate(559.912 178)">client est «vérifié», alors un compte est «créé»</text><path d="M237.572 178.997 326.573 178.997 326.573 179.997 237.572 179.997Z" fill="#0F9ED5" fill-rule="evenodd"/><rect x="102" y="553" width="144" height="114" fill="#FFC000"/><text font-family="Aptos,Aptos_MSFontService,sans-serif" font-weight="700" font-size="19" transform="translate(119.318 604)">Client Vérifié</text><text font-family="Aptos,Aptos_MSFontService,sans-serif" font-weight="400" font-size="19" transform="translate(120.131 627)">clientId</text><text font-family="Aptos,Aptos_MSFontService,sans-serif" font-weight="400" font-size="19" transform="translate(180.798 627)">: 0x04</text><rect x="103" y="414" width="143" height="114" fill="#0F9ED5"/><text font-family="Aptos,Aptos_MSFontService,sans-serif" font-weight="700" font-size="19" transform="translate(116.235 477)">Vérifier Client</text><rect x="324" y="414" width="144" height="114" fill="#4EA72E"/><text font-family="Aptos,Aptos_MSFontService,sans-serif" font-weight="700" font-size="19" transform="translate(357.851 432)">Liste des</text><text font-family="Aptos,Aptos_MSFontService,sans-serif" font-weight="700" font-size="19" transform="translate(351.111 455)">comptes à</text><text font-family="Aptos,Aptos_MSFontService,sans-serif" font-weight="700" font-size="19" transform="translate(373.584 477)">créer</text><text font-family="Aptos,Aptos_MSFontService,sans-serif" font-weight="400" font-size="19" transform="translate(341.644 499)">clientId</text><text font-family="Aptos,Aptos_MSFontService,sans-serif" font-weight="400" font-size="19" transform="translate(402.311 499)">:</text><text font-family="Aptos,Aptos_MSFontService,sans-serif" font-weight="400" font-size="19" transform="translate(411.477 499)">0x03</text><text font-family="Aptos,Aptos_MSFontService,sans-serif" font-weight="400" font-size="19" transform="translate(341.644 522)">clientId</text><text font-family="Aptos,Aptos_MSFontService,sans-serif" font-weight="400" font-size="19" transform="translate(402.311 522)">: 0x04</text><rect x="56" y="250" width="238" height="139" stroke="#042433" stroke-width="2" stroke-miterlimit="8" fill="none"/><text font-family="Aptos,Aptos_MSFontService,sans-serif" font-weight="700" font-size="19" transform="translate(84.042 272)">Confirmer Identité du</text><text font-family="Aptos,Aptos_MSFontService,sans-serif" font-weight="700" font-size="19" transform="translate(129.495 295)">client 0x04</text><rect x="56" y="233" width="238" height="19" stroke="#042433" stroke-width="2" stroke-miterlimit="8"/><rect x="268" y="236" width="19" height="15" stroke="#042433" stroke-width="2" stroke-miterlimit="8" fill="#FFFFFF"/><text font-family="Aptos,Aptos_MSFontService,sans-serif" font-weight="700" font-size="24" transform="translate(270.543 251)">X</text><rect x="546" y="414" width="144" height="114" fill="#0F9ED5"/><text font-family="Aptos,Aptos_MSFontService,sans-serif" font-weight="700" font-size="19" transform="translate(558.312 477)">Créer Compte</text><rect x="546" y="554" width="144" height="113" fill="#FFC000"/><text font-family="Aptos,Aptos_MSFontService,sans-serif" font-weight="700" font-size="19" transform="translate(561.729 594)">Compte Créé</text><text font-family="Aptos,Aptos_MSFontService,sans-serif" font-weight="400" font-size="19" transform="translate(562.095 617)">Compte 0xab</text><text font-family="Aptos,Aptos_MSFontService,sans-serif" font-weight="400" font-size="19" transform="translate(572.749 639)">Client 0x02</text><rect x="776" y="413" width="143" height="114" fill="#4EA72E"/><text font-family="Aptos,Aptos_MSFontService,sans-serif" font-weight="700" font-size="19" transform="translate(809.688 442)">Liste des</text><text font-family="Aptos,Aptos_MSFontService,sans-serif" font-weight="700" font-size="19" transform="translate(810.028 465)">comptes</text><text font-family="Aptos,Aptos_MSFontService,sans-serif" font-weight="400" font-size="19" transform="translate(793.481 487)">clientId</text><text font-family="Aptos,Aptos_MSFontService,sans-serif" font-weight="400" font-size="19" transform="translate(854.148 487)">: 0x01</text><text font-family="Aptos,Aptos_MSFontService,sans-serif" font-weight="400" font-size="19" transform="translate(793.481 509)">clientId</text><text font-family="Aptos,Aptos_MSFontService,sans-serif" font-weight="400" font-size="19" transform="translate(854.148 509)">: 0x02</text><path d="M0.0336684-0.999433 14.0824-0.526165 28.0523 0.856432 41.8002 3.08646 55.2171 6.10346 68.1945 9.84723 80.6237 14.2579 92.3959 19.2758 103.403 24.8419 113.536 30.8977 122.686 37.3856 130.745 44.2492 137.603 51.4336 143.135 58.8697 145.387 62.6943 147.258 66.5513 148.749 70.4672 149.905 75.4508 147.957 75.9029 146.816 70.9855 146.855 71.1151 145.405 67.3038 145.44 67.3846 143.605 63.6035 143.643 63.6744 141.439 59.9309 141.499 60.0204 136.035 52.6766 136.113 52.7702 129.334 45.6675 129.409 45.7383 121.423 38.937 121.493 38.9915 112.411 32.5518 112.476 32.5945 102.407 26.5768 102.469 26.6108 91.5225 21.0753 91.5817 21.1028 79.868 16.1098 79.9256 16.1323 67.554 11.7421 67.6113 11.7605 54.6915 8.03337 54.7493 8.04819 41.3909 5.04436 41.4501 5.05582 27.7628 2.83561 27.8244 2.84365 13.9178 1.46731 13.9826 1.47161-0.0336684 0.999433ZM152.75 73.8899 149.702 82.2988 144.804 74.815Z" fill="#156082" transform="matrix(1 0 0 -1 246 610.299)"/><path d="M395.002 413.768 395.259 409.454 396.029 405.096 397.29 400.765 399.023 396.47 401.209 392.219 403.83 388.02 406.868 383.881 410.306 379.808 414.128 375.809 418.326 371.882 427.731 364.325 438.424 357.173 450.266 350.496 463.131 344.358 476.89 338.825 491.419 333.962 506.588 329.833 522.271 326.506 538.34 324.047 554.669 322.523 564.433 322.212 564.496 324.211 554.763 324.521 554.824 324.517 538.555 326.036 538.614 326.029 522.602 328.479 522.658 328.469 507.031 331.784 507.086 331.77 491.971 335.884 492.026 335.867 477.553 340.712 477.609 340.692 463.906 346.202 463.963 346.177 451.158 352.286 451.219 352.255 439.439 358.896 439.504 358.856 428.879 365.963 428.95 365.912 419.608 373.418 419.664 373.368 415.514 377.25 415.554 377.211 411.773 381.168 411.814 381.122 408.418 385.145 408.46 385.092 405.464 389.173 405.506 389.111 402.928 393.243 402.969 393.171 400.823 397.344 400.861 397.26 399.164 401.467 399.197 401.372 397.965 405.603 397.989 405.498 397.239 409.746 397.252 409.631 396.998 413.887ZM563.005 319.256 571.128 323 563.259 327.252Z" fill="#156082"/><path d="M0.0326706-0.999466 14.827-0.515869 29.5357 0.896663 44.0109 3.17501 58.1378 6.25741 71.802 10.0824 84.8889 14.5886 97.2841 19.7153 108.873 25.402 119.542 31.5889 129.176 38.2171 137.661 45.229 144.869 52.5569 147.977 56.3435 150.715 60.1809 153.078 64.0736 155.048 68.0148 156.617 72.0161 157.877 77.2546 155.932 77.7221 154.689 72.5507 154.73 72.6821 153.202 68.7869 153.239 68.869 151.307 65.0046 151.347 65.0762 149.025 61.2503 149.066 61.3124 146.369 57.5327 146.41 57.5863 143.352 53.8605 143.412 53.9273 136.271 46.6683 136.347 46.7379 127.936 39.7869 128.006 39.8399 118.44 33.2585 118.505 33.2997 107.9 27.1495 107.961 27.1822 96.4318 21.5249 96.4901 21.5512 84.1525 16.4483 84.2091 16.4698 71.1786 11.9829 71.2346 12.0004 57.6267 8.19122 57.6831 8.20525 43.6132 5.1353 43.6709 5.14613 29.2546 2.87704 29.3145 2.88462 14.6672 1.47799 14.7301 1.48203-0.0326706 0.999466ZM160.723 75.7016 157.675 84.1103 152.777 76.6264Z" fill="#156082" transform="matrix(1 0 0 -1 690 611.11)"/><path d="M0.999612-0.0278367 1.51157 18.3564-0.487658 18.412-0.999612 0.0278367ZM4.47329 16.94 0.697533 25.0483-3.52361 17.1627Z" fill="#156082" transform="matrix(-1 0 0 1 175.698 389)"/><path d="M0.999915-0.0130167 1.24647 18.9268-0.75336 18.9528-0.999915 0.0130167ZM4.22886 17.5545 0.333333 25.6059-3.77046 17.6586Z" fill="#156082" transform="matrix(-1 0 0 1 174.333 528)"/><path d="M619 528 619 547.845 617 547.845 617 528ZM622 546.512 618 554.512 614 546.512Z" fill="#156082"/><path d="M1-0.000476954 1.01761 36.9165-0.982392 36.9174-1 0.000476954ZM4.01697 35.5817 0.0207874 43.5836-3.98303 35.5855Z" fill="#156082" transform="matrix(-1 0 0 1 618.021 371)"/><rect x="122.5" y="357.5" width="104" height="28" stroke="#0F9ED5" stroke-width="1.33333" stroke-miterlimit="8" fill="url(#fill0)"/><text fill="#FFFFFF" font-family="Aptos,Aptos_MSFontService,sans-serif" font-weight="700" font-size="15" transform="translate(140.457 376)">Confirmer</text><text font-family="Aptos,Aptos_MSFontService,sans-serif" font-weight="700" font-size="24" transform="translate(536.729 242)">Automation</text><text font-family="Aptos,Aptos_MSFontService,sans-serif" font-weight="700" font-size="24" transform="translate(492.949 271)">Création de compte</text><path d="M618.435 340.206C609.809 340.206 602.752 333.138 602.752 324.5 602.752 315.862 609.809 308.794 618.435 308.794 627.06 308.794 634.117 315.862 634.117 324.5 634.117 333.138 627.06 340.206 618.435 340.206ZM653.721 314.684C652.937 311.804 651.761 309.056 650.323 306.569L653.59 296.753 646.141 289.293 636.339 292.565C633.725 291.125 630.981 289.947 628.106 289.162L623.662 280 613.207 280 608.633 289.162C605.758 289.947 603.013 291.125 600.53 292.565L590.728 289.293 583.279 296.753 586.546 306.569C585.109 309.187 583.932 311.935 583.148 314.815L574 319.265 574 329.735 583.148 334.316C583.932 337.196 585.109 339.944 586.546 342.431L583.279 352.247 590.728 359.707 600.53 356.435C603.144 357.875 605.888 359.053 608.764 359.838L613.338 369 623.793 369 628.367 359.838C631.242 359.053 633.987 357.875 636.47 356.435L646.272 359.707 653.721 352.247 650.454 342.431C651.891 339.813 653.068 337.065 653.852 334.185L663 329.604 663 319.134 653.721 314.684Z" fill-rule="evenodd"/><rect x="729" y="249" width="238" height="139" stroke="#042433" stroke-width="2" stroke-miterlimit="8" fill="none"/><text font-family="Aptos,Aptos_MSFontService,sans-serif" font-weight="700" font-size="16" transform="translate(815.054 268)">Comptes</text><rect x="729" y="231" width="238" height="20" stroke="#042433" stroke-width="2" stroke-miterlimit="8"/><rect x="945" y="234" width="19" height="15" stroke="#042433" stroke-width="2" stroke-miterlimit="8" fill="#FFFFFF"/><text font-family="Aptos,Aptos_MSFontService,sans-serif" font-weight="700" font-size="24" transform="translate(947.327 249)">X</text><path d="M0.999418-0.0341268 1.63826 18.6745-0.360578 18.7428-0.999418 0.0341268ZM4.59101 17.2396 0.866352 25.3714-3.40433 17.5126Z" fill="#156082" transform="matrix(1 0 0 -1 848 413.371)"/><text font-family="Aptos,Aptos_MSFontService,sans-serif" font-weight="400" font-size="16" transform="translate(103.755 317)">Carte Identité</text><text font-family="Aptos,Aptos_MSFontService,sans-serif" font-weight="400" font-size="16" transform="translate(103.755 336)">Passepor</text><text font-family="Aptos,Aptos_MSFontService,sans-serif" font-weight="400" font-size="16" transform="translate(168.215 336)">t</text><rect x="207" y="300" width="19" height="19" stroke="#7F7F7F" stroke-width="2" stroke-miterlimit="8" fill="#FFFFFF"/><rect x="208" y="323" width="18" height="19" stroke="#7F7F7F" stroke-width="2" stroke-miterlimit="8" fill="#FFFFFF"/><path d="M378.288 533.104C389.939 511.783 439.43 516.383 488.829 543.378 538.228 570.373 568.829 609.54 557.178 630.861 545.527 652.182 496.036 647.582 446.637 620.587 397.238 593.592 366.637 554.425 378.288 533.104Z" stroke="#E59EDD" stroke-width="2" stroke-miterlimit="8" fill="#F2CFEE" fill-rule="evenodd" fill-opacity="0.501961"/><g><g><g><path d="M234.494 295.596 216.36 312.737 207.648 303.812 204.637 306.681 216.219 318.581 219.265 315.748 237.363 298.571Z" fill="#4EA72E"/></g></g></g><path d="M546.472 613.204 532.312 612.724 530.36 612.53 530.756 608.549 532.643 608.737 532.513 608.729 546.608 609.206ZM518.419 611.341 518.201 611.32 504.315 609.055 502.405 608.623 503.287 604.722 505.138 605.14 505.019 605.117 518.783 607.362 518.659 607.346 518.815 607.361ZM490.586 605.94 477.656 602.19 475.153 601.297 476.497 597.529 478.944 598.402 478.829 598.365 491.7 602.099ZM463.766 597.139 453.203 592.612 449.068 590.51 450.881 586.944 454.958 589.017 454.839 588.961 465.342 593.462ZM438.392 584.741 431.821 580.793 424.907 575.865 427.229 572.608 434.079 577.491 433.948 577.405 440.452 581.313ZM415.499 568.147 414.375 567.185 407.402 559.84 404.52 555.945 407.735 553.566 410.545 557.362 410.387 557.175 417.205 564.356 417.056 564.213 418.101 565.108ZM398.078 545.42 397.513 544.25 395.742 538.446 399.568 537.278 401.294 542.936 401.183 542.651 401.68 543.682ZM392.069 540.828 396 528 403.904 538.841Z" fill="#156082"/><text fill="#D86ECC" font-family="Aptos,Aptos_MSFontService,sans-serif" font-weight="400" font-size="24" transform="translate(1007.04 441)">Cette flèche qui revient</text><text fill="#D86ECC" font-family="Aptos,Aptos_MSFontService,sans-serif" font-weight="400" font-size="24" transform="translate(1004.22 470)">en arrière confirme que</text><text fill="#D86ECC" font-family="Aptos,Aptos_MSFontService,sans-serif" font-weight="400" font-size="24" transform="translate(1011.33 499)">l’évènement «Compte</text><text fill="#D86ECC" font-family="Aptos,Aptos_MSFontService,sans-serif" font-weight="400" font-size="24" transform="translate(1015.18 528)">Créé» a été enregistré</text><text fill="#D86ECC" font-family="Aptos,Aptos_MSFontService,sans-serif" font-weight="400" font-size="24" transform="translate(1019.22 556)">pour le</text><text fill="#D86ECC" font-family="Aptos,Aptos_MSFontService,sans-serif" font-weight="400" font-size="24" transform="translate(1095.72 556)">clientId</text><text fill="#D86ECC" font-family="Aptos,Aptos_MSFontService,sans-serif" font-weight="400" font-size="24" transform="translate(1178.39 556)">0x56:</text><text fill="#D86ECC" font-family="Aptos,Aptos_MSFontService,sans-serif" font-weight="400" font-size="24" transform="translate(1015.47 585)">l’élément passe de «à</text><text fill="#D86ECC" font-family="Aptos,Aptos_MSFontService,sans-serif" font-weight="400" font-size="24" transform="translate(1058.32 614)">faire» à «fait».</text><path d="M0.401469 0.915873-0.723165 1.40885-0.33221 1.10295-1.45465 2.56113-1.34113 2.37456-2.45917 4.7668-2.41756 4.66301-3.52901 7.95818-3.50984 7.89439-4.6125 12.0614-4.60217 12.0185-5.69385 17.0262-5.68765 16.9955-6.76615 22.8126-6.76213 22.7894-7.82524 29.385-7.82248 29.3668-8.86802 36.7096-8.86604 36.6949-9.89179 44.7538-9.89031 44.7416-10.8941 53.4855-10.893 53.4751-11.8726 62.8728-11.8717 62.8638-12.8249 72.8843-12.8242 72.8764-13.7489 83.4884-13.7483 83.4813-14.6422 94.6538-14.6417 94.6474-15.5027 106.349-15.5023 106.343-16.3281 118.543-16.3277 118.538-17.1162 131.205-17.1159 131.2-17.8648 144.303-17.8645 144.298-18.5717 157.805-18.5713 157.799-19.8516 185.904-19.8513 185.895-20.9382 215.245-20.9379 215.237-21.8139 245.584-21.8137 245.576-22.4612 276.67-22.461 276.662-22.8624 308.254-22.8623 308.246-23 340.087-23 340.077-22.8233 371.918-22.8234 371.907-22.3083 403.499-22.3086 403.489-21.4776 434.583-21.478 434.573-20.3538 464.919-20.3542 464.909-18.9593 494.259-18.9599 494.248-17.3169 522.353-17.3174 522.345-16.4099 535.852-16.4103 535.846-15.4492 548.949-15.4497 548.943-14.4379 561.61-14.4385 561.603-13.3787 573.802-13.3793 573.795-12.2744 585.497-12.2752 585.489-11.128 596.661-11.129 596.652-9.94231 607.264-9.94348 607.254-8.72014 617.275-8.7216 617.263-7.46441 626.661-7.46626 626.648-6.17806 635.392-6.18046 635.376-4.86406 643.435-4.86727 643.416-3.52549 650.759-3.52993 650.736-2.16559 657.332-2.17202 657.303-0.787937 663.12-0.797757 663.082 0.603242 668.09 0.587108 668.038 2.00221 672.205 1.91467 672.015 3.40567 674.52 1.68696 675.543 0.142224 672.947-1.31545 668.655-2.72908 663.602-4.12113 657.752-5.49082 651.13-6.83638 643.767-8.15556 635.691-9.44587 626.933-10.7047 617.523-11.9294 607.491-13.1171 596.87-14.2652 585.689-15.3708 573.979-16.4313 561.772-17.4437 549.099-18.4052 535.989-19.3132 522.474-20.9568 494.36-22.3522 464.999-23.4768 434.642-24.308 403.537-24.8232 371.935-25 340.083-24.8623 308.233-24.4608 276.632-23.8132 245.53-22.937 215.175-21.8497 185.817-20.5691 157.704-19.8617 144.191-19.1125 131.083-18.3237 118.411-17.4975 106.205-16.6361 94.4975-15.7416 83.3183-14.8163 72.6988-13.8623 62.6699-12.8816 53.2625-11.8766 44.5074-10.8491 36.435-9.80122 29.0758-8.73478 22.4596-7.65129 16.6155-6.55158 11.571-5.43476 7.35054-4.29476 3.97073-3.1065 1.42824-1.76077-0.320029-0.401469-0.915873ZM4.77533 671.453 6.80031 680.165-1.3843 676.558Z" fill="#E59EDD" transform="matrix(-6.12323e-17 -1 -1 6.12323e-17 1127.16 627.8)"/><path d="M743.275 286.358 844.458 286.358 844.458 312.245 743.275 312.245Z" fill="#D1D1D1" fill-rule="evenodd"/><path d="M844.458 286.358 945.64 286.358 945.64 312.245 844.458 312.245Z" fill="#D1D1D1" fill-rule="evenodd"/><path d="M844.458 285.692 844.458 364.685" stroke="#000000" stroke-width="1.33333" stroke-linejoin="round" stroke-miterlimit="10" fill="none" fill-rule="evenodd"/><path d="M742.609 312.245 946.307 312.245" stroke="#000000" stroke-width="1.33333" stroke-linejoin="round" stroke-miterlimit="10" fill="none" fill-rule="evenodd"/><path d="M742.609 338.132 946.307 338.132" stroke="#000000" stroke-width="1.33333" stroke-linejoin="round" stroke-miterlimit="10" fill="none" fill-rule="evenodd"/><path d="M743.275 285.692 743.275 364.685" stroke="#000000" stroke-width="1.33333" stroke-linejoin="round" stroke-miterlimit="10" fill="none" fill-rule="evenodd"/><path d="M945.64 285.692 945.64 364.685" stroke="#000000" stroke-width="1.33333" stroke-linejoin="round" stroke-miterlimit="10" fill="none" fill-rule="evenodd"/><path d="M742.609 286.358 946.307 286.358" stroke="#000000" stroke-width="1.33333" stroke-linejoin="round" stroke-miterlimit="10" fill="none" fill-rule="evenodd"/><path d="M742.609 364.019 946.307 364.019" stroke="#000000" stroke-width="1.33333" stroke-linejoin="round" stroke-miterlimit="10" fill="none" fill-rule="evenodd"/><text font-family="Aptos,Aptos_MSFontService,sans-serif" font-weight="700" font-size="13" transform="translate(870.799 303)">ClientId</text><text font-family="Aptos,Aptos_MSFontService,sans-serif" font-weight="700" font-size="13" transform="translate(763.533 303)">CompteId</text><text font-family="Aptos,Aptos_MSFontService,sans-serif" font-weight="400" font-size="13" transform="translate(881.382 329)">0x02</text><text font-family="Aptos,Aptos_MSFontService,sans-serif" font-weight="400" font-size="13" transform="translate(780.033 329)">0xab</text><text font-family="Aptos,Aptos_MSFontService,sans-serif" font-weight="400" font-size="13" transform="translate(881.382 355)">0x01</text><text font-family="Aptos,Aptos_MSFontService,sans-serif" font-weight="400" font-size="13" transform="translate(780.2 355)">0xaa</text></g></svg>