<svg width="1280" height="720" xmlns="http://www.w3.org/2000/svg" xmlns:xlink="http://www.w3.org/1999/xlink" overflow="hidden"><g><rect x="0" y="0" width="1280" height="720" fill="#FFFFFF"/><text fill="#0F9ED5" font-family="Aptos Display,Aptos Display_MSFontService,sans-serif" font-weight="400" font-size="59" transform="translate(242.893 124)">ToDo</text><text fill="#0F9ED5" font-family="Aptos Display,Aptos Display_MSFontService,sans-serif" font-weight="400" font-size="59" transform="translate(375.86 124)">List pour un workflow (saga)</text><path d="M212.075 270.459 346.868 270.459 346.868 309.392 212.075 309.392Z" fill="#7F7F7F" fill-rule="evenodd"/><path d="M346.868 270.459 438.34 270.459 438.34 309.392 346.868 309.392Z" fill="#7F7F7F" fill-rule="evenodd"/><path d="M346.868 269.792 346.868 465.792" stroke="#000000" stroke-width="1.33333" stroke-linejoin="round" stroke-miterlimit="10" fill="none" fill-rule="evenodd"/><path d="M211.409 309.392 439.007 309.392" stroke="#000000" stroke-width="1.33333" stroke-linejoin="round" stroke-miterlimit="10" fill="none" fill-rule="evenodd"/><path d="M211.409 348.326 439.007 348.326" stroke="#000000" stroke-width="1.33333" stroke-linejoin="round" stroke-miterlimit="10" fill="none" fill-rule="evenodd"/><path d="M211.409 387.259 439.007 387.259" stroke="#000000" stroke-width="1.33333" stroke-linejoin="round" stroke-miterlimit="10" fill="none" fill-rule="evenodd"/><path d="M211.409 426.192 439.007 426.192" stroke="#000000" stroke-width="1.33333" stroke-linejoin="round" stroke-miterlimit="10" fill="none" fill-rule="evenodd"/><path d="M212.075 269.792 212.075 465.792" stroke="#000000" stroke-width="1.33333" stroke-linejoin="round" stroke-miterlimit="10" fill="none" fill-rule="evenodd"/><path d="M438.34 269.792 438.34 465.792" stroke="#000000" stroke-width="1.33333" stroke-linejoin="round" stroke-miterlimit="10" fill="none" fill-rule="evenodd"/><path d="M211.409 270.459 439.007 270.459" stroke="#000000" stroke-width="1.33333" stroke-linejoin="round" stroke-miterlimit="10" fill="none" fill-rule="evenodd"/><path d="M211.409 465.126 439.007 465.126" stroke="#000000" stroke-width="1.33333" stroke-linejoin="round" stroke-miterlimit="10" fill="none" fill-rule="evenodd"/><g><text font-family="Aptos,Aptos_MSFontService,sans-serif" font-weight="700" font-size="21" transform="translate(356.468 295)">ToDo</text></g><text font-family="Aptos,Aptos_MSFontService,sans-serif" font-weight="700" font-size="21" transform="translate(409.428 295)">?</text><text font-family="Aptos,Aptos_MSFontService,sans-serif" font-weight="700" font-size="21" transform="translate(251.609 295)">Steps</text><g><text font-family="Aptos,Aptos_MSFontService,sans-serif" font-weight="400" font-size="21" transform="translate(356.468 334)">Done</text></g><text font-family="Aptos,Aptos_MSFontService,sans-serif" font-weight="400" font-size="21" transform="translate(273.805 334)">1</text><g><text font-family="Aptos,Aptos_MSFontService,sans-serif" font-weight="400" font-size="21" transform="translate(356.468 373)">Done</text></g><text font-family="Aptos,Aptos_MSFontService,sans-serif" font-weight="400" font-size="21" transform="translate(273.805 373)">2</text><g><text font-family="Aptos,Aptos_MSFontService,sans-serif" font-weight="400" font-size="21" transform="translate(356.468 412)">Yes</text></g><text font-family="Aptos,Aptos_MSFontService,sans-serif" font-weight="400" font-size="21" transform="translate(273.805 412)">3</text><g><text font-family="Aptos,Aptos_MSFontService,sans-serif" font-weight="400" font-size="21" transform="translate(356.468 451)">Yes</text></g><text font-family="Aptos,Aptos_MSFontService,sans-serif" font-weight="400" font-size="21" transform="translate(273.805 451)">4</text><g><g><g><path d="M858 614C851.4 614 846 608.6 846 602 846 595.4 851.4 590 858 590 864.6 590 870 595.4 870 602 870 608.6 864.6 614 858 614ZM885 594.5C884.4 592.3 883.5 590.2 882.4 588.3L884.9 580.8 879.2 575.1 871.7 577.6C869.7 576.5 867.6 575.6 865.4 575L862 568 854 568 850.5 575C848.3 575.6 846.2 576.5 844.3 577.6L836.8 575.1 831.1 580.8 833.6 588.3C832.5 590.3 831.6 592.4 831 594.6L824 598 824 606 831 609.5C831.6 611.7 832.5 613.8 833.6 615.7L831.1 623.2 836.8 628.9 844.3 626.4C846.3 627.5 848.4 628.4 850.6 629L854.1 636 862.1 636 865.6 629C867.8 628.4 869.9 627.5 871.8 626.4L879.3 628.9 885 623.2 882.5 615.7C883.6 613.7 884.5 611.6 885.1 609.4L892.1 605.9 892.1 597.9 885 594.5Z"/></g></g></g><g><g><g><path d="M858 254C851.4 254 846 248.6 846 242 846 235.4 851.4 230 858 230 864.6 230 870 235.4 870 242 870 248.6 864.6 254 858 254ZM885 234.5C884.4 232.3 883.5 230.2 882.4 228.3L884.9 220.8 879.2 215.1 871.7 217.6C869.7 216.5 867.6 215.6 865.4 215L862 208 854 208 850.5 215C848.3 215.6 846.2 216.5 844.3 217.6L836.8 215.1 831.1 220.8 833.6 228.3C832.5 230.3 831.6 232.4 831 234.6L824 238 824 246 831 249.5C831.6 251.7 832.5 253.8 833.6 255.7L831.1 263.2 836.8 268.9 844.3 266.4C846.3 267.5 848.4 268.4 850.6 269L854.1 276 862.1 276 865.6 269C867.8 268.4 869.9 267.5 871.8 266.4L879.3 268.9 885 263.2 882.5 255.7C883.6 253.7 884.5 251.6 885.1 249.4L892.1 245.9 892.1 237.9 885 234.5Z"/></g></g></g><g><g><g><path d="M858 372C851.4 372 846 366.6 846 360 846 353.4 851.4 348 858 348 864.6 348 870 353.4 870 360 870 366.6 864.6 372 858 372ZM885 352.5C884.4 350.3 883.5 348.2 882.4 346.3L884.9 338.8 879.2 333.1 871.7 335.6C869.7 334.5 867.6 333.6 865.4 333L862 326 854 326 850.5 333C848.3 333.6 846.2 334.5 844.3 335.6L836.8 333.1 831.1 338.8 833.6 346.3C832.5 348.3 831.6 350.4 831 352.6L824 356 824 364 831 367.5C831.6 369.7 832.5 371.8 833.6 373.7L831.1 381.2 836.8 386.9 844.3 384.4C846.3 385.5 848.4 386.4 850.6 387L854.1 394 862.1 394 865.6 387C867.8 386.4 869.9 385.5 871.8 384.4L879.3 386.9 885 381.2 882.5 373.7C883.6 371.7 884.5 369.6 885.1 367.4L892.1 363.9 892.1 355.9 885 352.5Z"/></g></g></g><g><g><g><path d="M858 493C851.4 493 846 487.6 846 481 846 474.4 851.4 469 858 469 864.6 469 870 474.4 870 481 870 487.6 864.6 493 858 493ZM885 473.5C884.4 471.3 883.5 469.2 882.4 467.3L884.9 459.8 879.2 454.1 871.7 456.6C869.7 455.5 867.6 454.6 865.4 454L862 447 854 447 850.5 454C848.3 454.6 846.2 455.5 844.3 456.6L836.8 454.1 831.1 459.8 833.6 467.3C832.5 469.3 831.6 471.4 831 473.6L824 477 824 485 831 488.5C831.6 490.7 832.5 492.8 833.6 494.7L831.1 502.2 836.8 507.9 844.3 505.4C846.3 506.5 848.4 507.4 850.6 508L854.1 515 862.1 515 865.6 508C867.8 507.4 869.9 506.5 871.8 505.4L879.3 507.9 885 502.2 882.5 494.7C883.6 492.7 884.5 490.6 885.1 488.4L892.1 484.9 892.1 476.9 885 473.5Z"/></g></g></g><text font-family="Aptos,Aptos_MSFontService,sans-serif" font-weight="400" font-size="24" transform="translate(745.902 322)">Step</text><text font-family="Aptos,Aptos_MSFontService,sans-serif" font-weight="400" font-size="24" transform="translate(798.115 322)">2: Valider Paiement</text><text font-family="Aptos,Aptos_MSFontService,sans-serif" font-weight="400" font-size="24" transform="translate(745.902 438)">Step</text><text font-family="Aptos,Aptos_MSFontService,sans-serif" font-weight="400" font-size="24" transform="translate(798.115 438)">3: Planifier livraison</text><text font-family="Aptos,Aptos_MSFontService,sans-serif" font-weight="400" font-size="24" transform="translate(745.902 561)">Step</text><text font-family="Aptos,Aptos_MSFontService,sans-serif" font-weight="400" font-size="24" transform="translate(798.115 561)">4: Exécuter livraison</text><path d="M438.002 327.993 438.437 321.366 439.735 314.696 441.861 308.064 444.783 301.484 448.471 294.969 452.896 288.53 458.027 282.179 463.838 275.927 470.299 269.785 477.385 263.765 485.067 257.877 493.318 252.135 502.112 246.551 511.422 241.136 521.22 235.902 531.479 230.863 542.173 226.031 553.274 221.419 564.755 217.038 576.596 212.9 601.21 205.415 626.919 199.059 653.499 193.937 680.727 190.153 694.528 188.792 708.405 187.805 722.337 187.203 729.617 187.097 729.646 189.097 722.381 189.203 722.409 189.202 708.505 189.803 708.533 189.801 694.683 190.786 694.71 190.784 680.943 192.141 680.982 192.136 653.8 195.915 653.852 195.906 627.323 201.018 627.373 201.007 601.716 207.35 601.767 207.336 577.197 214.807 577.236 214.795 565.428 218.921 565.455 218.912 554 223.282 554.028 223.271 542.954 227.872 542.982 227.86 532.317 232.679 532.346 232.666 522.117 237.69 522.147 237.675 512.38 242.891 512.412 242.874 503.135 248.27 503.168 248.25 494.408 253.812 494.443 253.789 486.228 259.506 486.265 259.479 478.621 265.337 478.66 265.305 471.615 271.291 471.657 271.254 465.238 277.355 465.281 277.311 459.516 283.515 459.561 283.463 454.476 289.757 454.522 289.695 450.144 296.065 450.19 295.992 446.548 302.427 446.591 302.34 443.711 308.826 443.749 308.725 441.658 315.25 441.687 315.136 440.412 321.686 440.429 321.561 439.998 328.124ZM728.24 184.117 736.297 188 728.357 192.116Z" fill="#156082"/><path d="M437.015 366.741 437.474 364.111 438.878 361.398 441.105 358.784 444.105 356.243 447.847 353.756 452.31 351.313 457.47 348.911 463.303 346.549 469.786 344.232 476.891 341.961 484.593 339.74 492.867 337.575 501.684 335.468 511.019 333.426 520.844 331.452 531.132 329.551 541.857 327.728 552.991 325.987 564.507 324.335 576.381 322.774 601.075 319.949 626.864 317.551 653.528 315.618 680.848 314.189 708.606 313.304 729.906 313.072 729.927 315.072 708.638 315.304 708.659 315.303 680.922 316.188 680.942 316.187 653.643 317.615 653.663 317.613 627.019 319.545 627.039 319.543 601.271 321.939 601.292 321.937 576.616 324.76 576.633 324.758 564.774 326.317 564.785 326.315 553.282 327.966 553.294 327.964 542.173 329.703 542.186 329.701 531.475 331.521 531.489 331.519 521.215 333.417 521.23 333.414 511.421 335.385 511.438 335.381 502.121 337.42 502.139 337.416 493.342 339.517 493.363 339.512 485.112 341.672 485.136 341.665 477.459 343.878 477.486 343.87 470.411 346.132 470.443 346.121 463.996 348.426 464.035 348.411 458.244 350.755 458.291 350.735 453.184 353.112 453.242 353.083 448.845 355.49 448.918 355.446 445.26 357.877 445.353 357.807 442.46 360.257 442.575 360.143 440.474 362.608 440.601 362.419 439.321 364.893 439.418 364.606 438.985 367.085ZM728.54 310.087 736.583 314 728.627 318.087Z" fill="#156082"/><path d="M0.0896322-0.995975 4.95197-0.558391 9.87661 0.755086 14.7568 2.8989 19.583 5.8365 24.3492 9.53434 29.0505 13.9618 33.6818 19.0903 38.237 24.8924 42.7096 31.3412 47.092 38.4101 51.3765 46.0724 55.5547 54.3016 59.6181 63.0711 63.558 72.354 67.3654 82.1237 71.0314 92.3534 74.5469 103.016 77.9028 114.085 81.0898 125.533 84.1001 137.338 89.5459 161.882 94.1697 187.516 97.8958 214.018 100.65 241.173 102.357 268.763 102.802 289.885 100.803 289.928 100.358 268.825 100.36 268.866 98.655 241.316 98.6582 241.355 95.908 214.239 95.9126 214.278 92.1918 187.814 92.198 187.852 87.5812 162.257 87.5891 162.296 82.1509 137.787 82.1582 137.817 79.1545 126.038 79.1601 126.059 75.9791 114.632 75.9855 114.654 72.6364 103.608 72.6437 103.631 69.136 92.9918 69.1443 93.016 65.4873 82.8114 65.4969 82.8372 61.6999 73.0942 61.7111 73.1217 57.7834 63.8674 57.7966 63.8972 53.7476 55.1588 53.7633 55.1911 49.6023 46.9957 49.6211 47.031 45.3574 39.4058 45.3803 39.4447 41.0233 32.4169 41.0515 32.4599 36.6105 26.0565 36.6456 26.1042 32.1299 20.3525 32.1743 20.4052 27.5933 15.3323 27.6499 15.39 23.0129 11.0231 23.0855 11.0852 18.4018 7.45137 18.4948 7.51548 13.7738 4.6419 13.8916 4.70325 9.14253 2.61708 9.28701 2.66775 4.51932 1.39613 4.68739 1.42588-0.0896322 0.995975ZM105.773 288.489 101.943 296.572 97.7752 288.658Z" fill="#156082" transform="matrix(1.83697e-16 1 1 -1.83697e-16 440 452)"/><path d="M0.494051-0.869433 1.47644-0.311197 2.41084 1.26242 3.20617 3.46846 3.96751 6.39453 4.71354 10.0493 5.44835 14.4188 6.17247 19.4819 6.88528 25.2147 7.58573 31.5918 8.27258 38.5871 8.94449 46.1745 9.60007 54.3274 10.2379 63.0189 10.8565 72.2225 11.4545 81.9112 12.0304 92.0583 12.5828 102.637 13.1101 113.62 13.611 124.98 14.084 136.692 14.9402 161.057 15.6671 186.503 16.2529 212.811 16.6859 239.768 16.9543 267.156 17.0242 288.091 15.0242 288.097 14.9543 267.166 14.9544 267.172 14.686 239.791 14.6861 239.797 14.2532 212.847 14.2533 212.853 13.6677 186.55 13.6678 186.557 12.9411 161.118 12.9413 161.124 12.0853 136.765 12.0855 136.77 11.6127 125.063 11.6129 125.066 11.1122 113.71 11.1123 113.714 10.5852 102.735 10.5854 102.739 10.0333 92.1648 10.0335 92.1693 9.45787 82.027 9.45816 82.032 8.86049 72.3484 8.86084 72.3539 8.2426 63.1561 8.24303 63.1623 7.60569 54.4772 7.60622 54.4842 6.95125 46.3389 6.95193 46.3469 6.2808 38.7683 6.28169 38.7778 5.59587 31.7929 5.59706 31.8044 4.89802 25.4402 4.89968 25.4544 4.18889 19.7378 4.19132 19.756 3.47024 14.7141 3.47401 14.7384 2.74412 10.3981 2.75047 10.4322 2.01324 6.8206 2.02525 6.87241 1.28214 4.01637 1.30918 4.10372 0.561661 2.03029 0.642552 2.20169-0.107909 0.937844 0.25788 1.29671-0.494051 0.869433ZM20.0197 286.747 16.0464 294.761 12.0197 286.774Z" fill="#156082" transform="matrix(1.83697e-16 1 1 -1.83697e-16 442 414)"/><text font-family="Aptos,Aptos_MSFontService,sans-serif" font-weight="400" font-size="24" transform="translate(745.902 195)">Step</text><text font-family="Aptos,Aptos_MSFontService,sans-serif" font-weight="400" font-size="24" transform="translate(798.115 195)">1: Valider Panier</text><text font-family="Aptos,Aptos_MSFontService,sans-serif" font-style="italic" font-weight="400" font-size="24" transform="translate(907.336 247)">(quand</text><text font-family="Aptos,Aptos_MSFontService,sans-serif" font-style="italic" font-weight="400" font-size="24" transform="translate(985.336 247)">ToDo</text><text font-family="Aptos,Aptos_MSFontService,sans-serif" font-style="italic" font-weight="400" font-size="24" transform="translate(1042.58 247)">= Yes pour</text><text font-family="Aptos,Aptos_MSFontService,sans-serif" font-style="italic" font-weight="400" font-size="24" transform="translate(1153.5 247)">step</text><text font-family="Aptos,Aptos_MSFontService,sans-serif" font-style="italic" font-weight="400" font-size="24" transform="translate(1203.41 247)">1)</text><text font-family="Aptos,Aptos_MSFontService,sans-serif" font-style="italic" font-weight="400" font-size="24" transform="translate(908.279 370)">(quand</text><text font-family="Aptos,Aptos_MSFontService,sans-serif" font-style="italic" font-weight="400" font-size="24" transform="translate(986.279 370)">ToDo</text><text font-family="Aptos,Aptos_MSFontService,sans-serif" font-style="italic" font-weight="400" font-size="24" transform="translate(1043.53 370)">= Yes pour</text><text font-family="Aptos,Aptos_MSFontService,sans-serif" font-style="italic" font-weight="400" font-size="24" transform="translate(1154.45 370)">step</text><text font-family="Aptos,Aptos_MSFontService,sans-serif" font-style="italic" font-weight="400" font-size="24" transform="translate(1204.35 370)">2)</text><text font-family="Aptos,Aptos_MSFontService,sans-serif" font-style="italic" font-weight="400" font-size="24" transform="translate(908.279 492)">(quand</text><text font-family="Aptos,Aptos_MSFontService,sans-serif" font-style="italic" font-weight="400" font-size="24" transform="translate(986.279 492)">ToDo</text><text font-family="Aptos,Aptos_MSFontService,sans-serif" font-style="italic" font-weight="400" font-size="24" transform="translate(1043.53 492)">= Yes pour</text><text font-family="Aptos,Aptos_MSFontService,sans-serif" font-style="italic" font-weight="400" font-size="24" transform="translate(1154.45 492)">step</text><text font-family="Aptos,Aptos_MSFontService,sans-serif" font-style="italic" font-weight="400" font-size="24" transform="translate(1204.35 492)">3)</text><text font-family="Aptos,Aptos_MSFontService,sans-serif" font-style="italic" font-weight="400" font-size="24" transform="translate(908.279 605)">(quand</text><text font-family="Aptos,Aptos_MSFontService,sans-serif" font-style="italic" font-weight="400" font-size="24" transform="translate(986.279 605)">ToDo</text><text font-family="Aptos,Aptos_MSFontService,sans-serif" font-style="italic" font-weight="400" font-size="24" transform="translate(1043.53 605)">= Yes pour</text><text font-family="Aptos,Aptos_MSFontService,sans-serif" font-style="italic" font-weight="400" font-size="24" transform="translate(1154.45 605)">step</text><text font-family="Aptos,Aptos_MSFontService,sans-serif" font-style="italic" font-weight="400" font-size="24" transform="translate(1204.35 605)">4)</text></g></svg>