<svg width="1280" height="720" xmlns="http://www.w3.org/2000/svg" xmlns:xlink="http://www.w3.org/1999/xlink" overflow="hidden"><defs><linearGradient x1="197.5" y1="400.5" x2="197.5" y2="428.5" gradientUnits="userSpaceOnUse" spreadMethod="reflect" id="fill0"><stop offset="0" stop-color="#47AADF"/><stop offset="0.5" stop-color="#05A2DF"/><stop offset="1" stop-color="#0094CE"/></linearGradient></defs><g><rect x="0" y="0" width="1280" height="720" fill="#FFFFFF"/><path d="M119 381.167C119 379.418 120.418 378 122.167 378L242.833 378C244.582 378 246 379.418 246 381.167L246 393.833C246 395.582 244.582 397 242.833 397L122.167 397C120.418 397 119 395.582 119 393.833Z" stroke="#C04F15" stroke-width="2" stroke-miterlimit="8" fill="#F2AA84" fill-rule="evenodd"/><rect x="125" y="595" width="144" height="113" fill="#FFC000"/><text font-family="Aptos,Aptos_MSFontService,sans-serif" font-weight="700" font-size="19" transform="translate(150.502 627)">Cappucino</text><text font-family="Aptos,Aptos_MSFontService,sans-serif" font-weight="700" font-size="19" transform="translate(147.169 650)">Commandé</text><text font-family="Aptos,Aptos_MSFontService,sans-serif" font-weight="400" font-size="16" transform="translate(138.082 670)">Commande 0x03</text><text font-family="Aptos,Aptos_MSFontService,sans-serif" font-weight="400" font-size="16" transform="translate(169.169 689)">À</text><text font-family="Aptos,Aptos_MSFontService,sans-serif" font-weight="400" font-size="16" transform="translate(182.002 689)">10h53</text><rect x="125" y="456" width="144" height="113" fill="#0F9ED5"/><text font-family="Aptos,Aptos_MSFontService,sans-serif" font-weight="700" font-size="19" transform="translate(143.749 498)">Commander</text><text font-family="Aptos,Aptos_MSFontService,sans-serif" font-weight="700" font-size="19" transform="translate(145.416 521)">Cappuccino</text><text font-family="Aptos,Aptos_MSFontService,sans-serif" font-weight="400" font-size="16" transform="translate(138.082 541)">Commande 0x03</text><rect x="302" y="456" width="144" height="113" fill="#4EA72E"/><text font-family="Aptos,Aptos_MSFontService,sans-serif" font-weight="700" font-size="19" transform="translate(362.201 475)">Un</text><text font-family="Aptos,Aptos_MSFontService,sans-serif" font-weight="700" font-size="19" transform="translate(317.028 498)">cappuccino</text><text font-family="Aptos,Aptos_MSFontService,sans-serif" font-weight="700" font-size="19" transform="translate(420.875 498)">à</text><text font-family="Aptos,Aptos_MSFontService,sans-serif" font-weight="700" font-size="19" transform="translate(337.501 520)">Préparer</text><text font-family="Aptos,Aptos_MSFontService,sans-serif" font-weight="400" font-size="16" transform="translate(315.201 540)">Commande 0x03</text><rect x="114" y="292" width="167" height="139" stroke="#042433" stroke-width="2" stroke-miterlimit="8" fill="none"/><text font-family="Aptos,Aptos_MSFontService,sans-serif" font-weight="700" font-size="16" transform="translate(130.667 312)">Sélectionner votre</text><text font-family="Aptos,Aptos_MSFontService,sans-serif" font-weight="700" font-size="16" transform="translate(168.42 331)">boisson</text><text font-family="Aptos,Aptos_MSFontService,sans-serif" font-weight="400" font-size="19" transform="translate(123.92 353)">Café</text><text font-family="Aptos,Aptos_MSFontService,sans-serif" font-weight="400" font-size="16" transform="translate(123.92 373)">Espresso</text><text font-family="Aptos,Aptos_MSFontService,sans-serif" font-weight="700" font-size="16" transform="translate(123.92 392)">Cappuccino</text><rect x="114" y="274" width="167" height="20" stroke="#042433" stroke-width="2" stroke-miterlimit="8"/><rect x="261" y="277" width="19" height="16" stroke="#042433" stroke-width="2" stroke-miterlimit="8" fill="#FFFFFF"/><text font-family="Aptos,Aptos_MSFontService,sans-serif" font-weight="700" font-size="24" transform="translate(263.441 293)">X</text><path d="M252 386 265.5 369 265.5 377.5 279 377.5 279 394.5 265.5 394.5 265.5 403Z" fill="#F2AA84" fill-rule="evenodd"/><rect x="495" y="456" width="143" height="113" fill="#0F9ED5"/><text font-family="Aptos,Aptos_MSFontService,sans-serif" font-weight="700" font-size="19" transform="translate(529.748 498)">Préparer</text><text font-family="Aptos,Aptos_MSFontService,sans-serif" font-weight="700" font-size="19" transform="translate(527.221 521)">Espresso</text><text font-family="Aptos,Aptos_MSFontService,sans-serif" font-weight="400" font-size="16" transform="translate(507.448 541)">Commande 0x03</text><rect x="495" y="596" width="143" height="113" fill="#FFC000"/><text font-family="Aptos,Aptos_MSFontService,sans-serif" font-weight="700" font-size="19" transform="translate(527.221 628)">Espresso</text><text font-family="Aptos,Aptos_MSFontService,sans-serif" font-weight="700" font-size="19" transform="translate(533.161 651)">Préparé</text><text font-family="Aptos,Aptos_MSFontService,sans-serif" font-weight="400" font-size="16" transform="translate(507.448 671)">Commande 0x03</text><text font-family="Aptos,Aptos_MSFontService,sans-serif" font-weight="400" font-size="16" transform="translate(538.534 690)">À 10h54</text><rect x="674" y="456" width="143" height="113" fill="#4EA72E"/><text font-family="Aptos,Aptos_MSFontService,sans-serif" font-weight="700" font-size="19" transform="translate(696.672 498)">Ajouter Lait</text><text font-family="Aptos,Aptos_MSFontService,sans-serif" font-weight="400" font-size="16" transform="translate(686.452 518)">Commande 0x03</text><path d="M0.047834-0.998855 9.95355-0.524482 19.8248 0.864315 29.5358 3.1036 39.0103 6.13219 48.1718 9.8893 56.9441 14.3146 65.2509 19.348 73.0159 24.93 80.1623 31.0015 86.6133 37.5037 92.2915 44.3784 97.1188 51.5676 101.016 59.0135 103.906 66.668 105.732 75.4517 103.774 75.8588 101.964 67.1517 102.007 67.3013 99.1662 59.7767 99.2158 59.8872 95.3721 52.5434 95.4279 52.6372 90.6587 45.5345 90.7179 45.6138 85.1003 38.8125 85.1614 38.88 78.7725 32.4404 78.8349 32.4982 71.7518 26.4805 71.8156 26.5303 64.1154 20.9949 64.1809 21.0381 55.9409 16.0452 56.0087 16.0827 47.3059 11.6925 47.3768 11.7249 38.2884 7.99777 38.3633 8.02507 28.9663 5.02125 29.0461 5.04316 19.4177 2.82294 19.5031 2.83876 9.72045 1.46242 9.81194 1.47103-0.047834 0.998855ZM108.629 73.9937 105.308 82.2988 100.656 74.6594Z" fill="#156082" transform="matrix(1 0 0 -1 269 651.299)"/><path d="M0.122542-0.992463 3.6621-0.555425 7.25774 0.748883 10.7517 2.82619 14.1252 5.60656 17.3622 9.02923 20.4448 13.0386 23.3524 17.5813 26.0626 22.6046 28.5512 28.0559 30.7983 33.8957 34.4321 46.4374 35.7818 53.0863 36.7774 59.8853 37.3947 66.7945 37.6056 73.7299 37.8156 80.6359 37.8121 80.5773 38.4243 87.4293 38.4177 87.3735 39.4053 94.1174 39.3959 94.0634 40.7319 100.645 40.7124 100.566 44.323 113.027 44.2958 112.947 46.5167 118.718 46.4931 118.662 48.9552 124.055 48.9256 123.996 51.6022 128.957 51.5644 128.893 54.4287 133.368 54.3793 133.297 57.4044 137.232 57.3382 137.154 60.4975 140.495 60.4069 140.41 63.6734 143.102 63.476 142.975 67.2351 144.81 66.3579 146.607 62.4926 144.721 59.087 141.914 55.85 138.491 52.7675 134.482 49.8598 129.939 47.1496 124.916 44.661 119.465 42.4139 113.625 38.7801 101.083 37.4304 94.4343 36.4348 87.6354 35.8175 80.7261 35.6066 73.7907 35.3965 66.8847 35.4 66.9433 34.7878 60.0913 34.7944 60.1472 33.8069 53.4032 33.8163 53.4573 32.4803 46.8754 32.4998 46.9547 28.8892 34.4933 28.9164 34.5741 26.6956 28.8026 26.7192 28.8587 24.257 23.4654 24.2866 23.5249 21.61 18.5637 21.6478 18.628 18.7835 14.1531 18.833 14.2235 15.8078 10.2888 15.874 10.3664 12.7148 7.0259 12.8053 7.11046 9.53883 4.41828 9.6638 4.50616 6.31688 2.51628 6.48691 2.59679 3.08636 1.36325 3.30482 1.41565-0.122542 0.992463ZM66.6006 141.497 73.2122 147.521 64.4261 149.195Z" fill="#156082" transform="matrix(1 0 0 -1 446 512.521)"/><path d="M0.047511-0.998871 10.1294-0.519329 20.1751 0.884457 30.0581 3.14795 39.7003 6.20931 49.0242 10.0071 57.9521 14.4804 66.4063 19.5685 74.3091 25.2112 81.5824 31.3486 88.148 37.9215 93.927 44.8709 98.8401 52.1383 102.806 59.6654 105.748 67.4032 107.624 76.3555 105.666 76.7657 103.806 67.8902 103.85 68.0404 100.959 60.433 101.009 60.5438 97.0963 53.1192 97.1525 53.2131 92.298 46.0322 92.3575 46.1115 86.6394 39.2354 86.7007 39.3027 80.1975 32.7922 80.26 32.8497 73.0502 26.7658 73.114 26.8153 65.276 21.2189 65.3415 21.2619 56.954 16.2139 57.0217 16.2512 48.1631 11.8127 48.2338 11.8447 38.9827 8.07653 39.0573 8.10353 29.4921 5.06663 29.5714 5.08828 19.7707 2.84362 19.8556 2.85924 9.89785 1.46775 9.98874 1.47624-0.047511 0.998871ZM110.522 74.9031 107.193 83.2047 102.549 75.5605Z" fill="#156082" transform="matrix(1 0 0 -1 638 652.205)"/><path d="M0.999823-0.0187908 1.34531 18.364-0.654334 18.4016-0.999823 0.0187908ZM4.31973 16.9745 0.470761 25.0483-3.67886 17.1249Z" fill="#156082" transform="matrix(-1 0 0 1 197.471 431)"/><path d="M198 569 198 587.939 196 587.939 196 569ZM201 586.606 197 594.606 193 586.606Z" fill="#156082"/><path d="M567 569 567 588.845 565 588.845 565 569ZM570 587.512 566 595.512 562 587.512Z" fill="#156082"/><path d="M1-0.000476954 1.01761 36.9165-0.982392 36.9174-1 0.000476954ZM4.01697 35.5817 0.0207874 43.5836-3.98303 35.5855Z" fill="#156082" transform="matrix(-1 0 0 1 566.021 412)"/><rect x="145.5" y="400.5" width="104" height="28" stroke="#0F9ED5" stroke-width="1.33333" stroke-miterlimit="8" fill="url(#fill0)"/><text fill="#FFFFFF" font-family="Aptos,Aptos_MSFontService,sans-serif" font-weight="700" font-size="15" transform="translate(173.111 419)">Valider</text><text font-family="Aptos,Aptos_MSFontService,sans-serif" font-weight="700" font-size="24" transform="translate(504.53 282)">Automation</text><text font-family="Aptos,Aptos_MSFontService,sans-serif" font-weight="700" font-size="24" transform="translate(518.277 311)">Espresso</text><path d="M0 0 1207.17 0.294803" stroke="#156082" stroke-width="2" stroke-miterlimit="8" stroke-dasharray="8 6" fill="none" fill-rule="evenodd" transform="matrix(1 0 0 -1 54 586.295)"/><path d="M566.435 382.206C557.809 382.206 550.752 375.138 550.752 366.5 550.752 357.862 557.809 350.794 566.435 350.794 575.06 350.794 582.117 357.862 582.117 366.5 582.117 375.138 575.06 382.206 566.435 382.206ZM601.721 356.684C600.937 353.804 599.761 351.056 598.323 348.569L601.59 338.753 594.141 331.293 584.339 334.565C581.725 333.125 578.981 331.947 576.106 331.162L571.662 322 561.207 322 556.633 331.162C553.758 331.947 551.013 333.125 548.53 334.565L538.728 331.293 531.279 338.753 534.546 348.569C533.109 351.187 531.932 353.935 531.148 356.815L522 361.265 522 371.735 531.148 376.316C531.932 379.196 533.109 381.944 534.546 384.431L531.279 394.247 538.728 401.707 548.53 398.435C551.144 399.875 553.888 401.053 556.764 401.838L561.338 411 571.793 411 576.367 401.838C579.242 401.053 581.987 399.875 584.47 398.435L594.272 401.707 601.721 394.247 598.454 384.431C599.891 381.813 601.068 379.065 601.852 376.185L611 371.604 611 361.134 601.721 356.684Z" fill-rule="evenodd"/><rect x="1030" y="287" width="167" height="139" stroke="#042433" stroke-width="2" stroke-miterlimit="8" fill="none"/><text font-family="Aptos,Aptos_MSFontService,sans-serif" font-weight="700" font-size="16" transform="translate(1071.03 307)">Préparation</text><text font-family="Aptos,Aptos_MSFontService,sans-serif" font-weight="400" font-size="16" transform="translate(1039.91 326)">Café</text><text font-family="Aptos,Aptos_MSFontService,sans-serif" font-weight="400" font-size="16" transform="translate(1039.91 345)">Espresso</text><text font-family="Aptos,Aptos_MSFontService,sans-serif" font-weight="700" font-size="16" transform="translate(1039.91 364)">Cappuccino</text><text font-family="Aptos,Aptos_MSFontService,sans-serif" font-style="italic" font-weight="700" font-size="16" transform="translate(1046.58 384)">Commande 0x03</text><rect x="1030" y="270" width="167" height="19" stroke="#042433" stroke-width="2" stroke-miterlimit="8"/><rect x="1175" y="273" width="19" height="15" stroke="#042433" stroke-width="2" stroke-miterlimit="8" fill="#FFFFFF"/><text font-family="Aptos,Aptos_MSFontService,sans-serif" font-weight="700" font-size="24" transform="translate(1177.62 288)">X</text><path d="M0.99975-0.0223366 1.48979 21.9111-0.509711 21.9558-0.99975 0.0223366ZM4.45926 20.5111 0.63895 28.5984-3.53874 20.6898Z" fill="#156082" transform="matrix(1 0 0 -1 1113 454.598)"/><g><g><g><path d="M36.7719 6.74792 14.9052 27.4187 4.39896 16.6562 0.76875 20.1156 14.7344 34.4656 18.4073 31.049 40.2313 10.3354Z" fill="#4EA72E" transform="matrix(1 0 0 1.02439 1140 333)"/></g></g></g><path d="M394 358.667C394 356.089 396.089 354 398.667 354L446.333 354C448.911 354 451 356.089 451 358.667L451 377.333C451 379.911 448.911 382 446.333 382L398.667 382C396.089 382 394 379.911 394 377.333Z" stroke="#FFFFFF" stroke-width="2" stroke-miterlimit="8" fill="#4EA72E" fill-rule="evenodd"/><text fill="#FFFFFF" font-family="Aptos,Aptos_MSFontService,sans-serif" font-weight="400" font-size="9" transform="translate(405.322 371)">En cours</text><rect x="291" y="292" width="166" height="139" stroke="#042433" stroke-width="2" stroke-miterlimit="8" fill="none"/><text font-family="Aptos,Aptos_MSFontService,sans-serif" font-weight="700" font-size="16" transform="translate(331.651 312)">Préparation</text><text font-family="Aptos,Aptos_MSFontService,sans-serif" font-weight="400" font-size="19" transform="translate(300.531 333)">Café</text><text font-family="Aptos,Aptos_MSFontService,sans-serif" font-weight="400" font-size="16" transform="translate(300.531 353)">Espresso</text><text font-family="Aptos,Aptos_MSFontService,sans-serif" font-weight="700" font-size="16" transform="translate(300.531 373)">Cappuccino</text><rect x="291" y="274" width="166" height="20" stroke="#042433" stroke-width="2" stroke-miterlimit="8"/><rect x="438" y="278" width="19" height="15" stroke="#042433" stroke-width="2" stroke-miterlimit="8" fill="#FFFFFF"/><text font-family="Aptos,Aptos_MSFontService,sans-serif" font-weight="700" font-size="24" transform="translate(440.052 293)">X</text><rect x="322.5" y="401.5" width="104" height="27" stroke="#FFFFFF" stroke-width="1.33333" stroke-miterlimit="8" fill="#D1D1D1"/><text fill="#FFFFFF" font-family="Aptos,Aptos_MSFontService,sans-serif" font-weight="700" font-size="15" transform="translate(349.966 419)">Valider</text><path d="M0.000352057-1 4.60862-0.998378 8.62933-0.994107 10.2356-0.991258 11.4743-0.988082 12.2767-0.984671 12.5626-0.981131 12.8446-0.977609 12.8364-0.977678 13.633-0.974276 14.8692-0.971106 16.4739-0.968266 18.4345-0.966739 18.4329 1.03326 16.4704 1.03173 14.8641 1.02889 13.6245 1.02571 12.8237 1.02229 12.5379 1.01872 12.256 1.01523 12.2641 1.01529 11.4691 1.01191 10.232 1.00874 8.6272 1.00589 4.60792 1.00162-0.000352057 1ZM17.103-3.9676 25.1004 0.0375853 17.0978 4.03239Z" fill="#156082" transform="matrix(-1.83697e-16 -1 -1 1.83697e-16 374.038 456.1)"/><rect x="850" y="455" width="143" height="113" fill="#0F9ED5"/><text font-family="Aptos,Aptos_MSFontService,sans-serif" font-weight="700" font-size="19" transform="translate(884.755 496)">Préparer</text><text font-family="Aptos,Aptos_MSFontService,sans-serif" font-weight="700" font-size="19" transform="translate(882.228 519)">Espresso</text><text font-family="Aptos,Aptos_MSFontService,sans-serif" font-weight="400" font-size="16" transform="translate(862.455 539)">Commande 0x03</text><rect x="850" y="595" width="143" height="113" fill="#FFC000"/><text font-family="Aptos,Aptos_MSFontService,sans-serif" font-weight="700" font-size="19" transform="translate(876.095 638)">Lait Ajouté</text><text font-family="Aptos,Aptos_MSFontService,sans-serif" font-weight="400" font-size="16" transform="translate(862.455 658)">Commande 0x03</text><text font-family="Aptos,Aptos_MSFontService,sans-serif" font-weight="400" font-size="16" transform="translate(893.541 677)">À 10h54</text><rect x="1041" y="455" width="144" height="113" fill="#4EA72E"/><text font-family="Aptos,Aptos_MSFontService,sans-serif" font-weight="700" font-size="19" transform="translate(1061.24 474)">Cappuccino</text><text font-family="Aptos,Aptos_MSFontService,sans-serif" font-weight="700" font-size="19" transform="translate(1056.07 497)">disponibles =</text><text font-family="Aptos,Aptos_MSFontService,sans-serif" font-weight="700" font-size="19" transform="translate(1107.82 519)">1</text><text font-family="Aptos,Aptos_MSFontService,sans-serif" font-weight="400" font-size="16" transform="translate(1053.9 539)">Commande 0x03</text><path d="M0.0425785-0.999093 11.2849-0.519976 22.478 0.881444 33.4913 3.14145 44.238 6.19854 54.6312 9.99156 64.5842 14.4597 74.0103 19.5426 82.8226 25.1802 90.9341 31.313 98.2577 37.8821 104.705 44.8292 110.189 52.0966 114.618 59.627 117.904 67.3737 120.001 76.3383 118.054 76.7938 115.976 67.9128 116.03 68.0757 112.802 60.4682 112.861 60.5846 108.494 53.16 108.558 53.2553 103.14 46.0745 103.205 46.1524 96.8229 39.2762 96.8881 39.3404 89.6299 32.8299 89.6945 32.8831 81.6476 26.7992 81.7118 26.8439 72.9639 21.2475 73.0282 21.2853 63.6669 16.2373 63.732 16.2694 53.8449 11.8309 53.9117 11.858 43.5865 8.08981 43.6557 8.11225 32.9801 5.07536 33.0527 5.09311 22.1142 2.84845 22.1909 2.86111 11.0772 1.46962 11.1588 1.47646-0.0425785 0.999093ZM122.889 74.8723 119.637 83.2047 114.922 75.6043Z" fill="#156082" transform="matrix(1 0 0 -1 993 651.205)"/><path d="M1-0.000476954 1.01761 36.9165-0.982392 36.9174-1 0.000476954ZM4.01697 35.5817 0.0207874 43.5836-3.98303 35.5855Z" fill="#156082" transform="matrix(-1 0 0 1 921.021 411)"/><text font-family="Aptos,Aptos_MSFontService,sans-serif" font-weight="700" font-size="24" transform="translate(859.537 281)">Automation</text><text font-family="Aptos,Aptos_MSFontService,sans-serif" font-weight="700" font-size="24" transform="translate(864.691 310)">Lait Chaud</text><path d="M921.435 380.882C912.809 380.882 905.752 373.735 905.752 365 905.752 356.265 912.809 349.118 921.435 349.118 930.06 349.118 937.117 356.265 937.117 365 937.117 373.735 930.06 380.882 921.435 380.882ZM956.721 355.074C955.937 352.162 954.761 349.382 953.323 346.868L956.59 336.941 949.141 329.397 939.339 332.706C936.725 331.25 933.981 330.059 931.106 329.265L926.662 320 916.207 320 911.633 329.265C908.758 330.059 906.013 331.25 903.53 332.706L893.728 329.397 886.279 336.941 889.546 346.868C888.109 349.515 886.932 352.294 886.148 355.206L877 359.706 877 370.294 886.148 374.927C886.932 377.838 888.109 380.618 889.546 383.132L886.279 393.059 893.728 400.603 903.53 397.294C906.144 398.75 908.888 399.941 911.764 400.735L916.338 410 926.793 410 931.367 400.735C934.242 399.941 936.987 398.75 939.47 397.294L949.272 400.603 956.721 393.059 953.454 383.132C954.891 380.485 956.068 377.706 956.852 374.794L966 370.162 966 359.574 956.721 355.074Z" fill-rule="evenodd"/><path d="M744.001 456.143 744.189 451.781 744.754 447.369 746.94 438.677 750.467 430.122 755.227 421.791 761.123 413.749 768.057 406.059 775.934 398.786 784.661 391.995 794.142 385.752 804.284 380.123 814.993 375.174 826.177 370.973 837.741 367.587 849.592 365.084 861.636 363.532 867.076 363.293 867.163 365.291 861.766 365.528 861.85 365.521 849.887 367.062 849.966 367.049 838.191 369.536 838.266 369.517 826.774 372.882 826.845 372.858 815.731 377.033 815.799 377.005 805.156 381.923 805.222 381.889 795.145 387.482 795.21 387.443 785.794 393.643 785.858 393.597 777.196 400.338 777.26 400.284 769.447 407.497 769.512 407.432 762.642 415.05 762.706 414.972 756.873 422.928 756.935 422.833 752.235 431.059 752.291 430.944 748.817 439.372 748.862 439.235 746.709 447.799 746.731 447.682 746.179 451.994 746.186 451.91 745.999 456.229ZM865.612 360.354 873.78 364 865.963 368.347Z" fill="#156082"/><path d="M849.144 651.845 841.153 651.46 841.249 649.463 849.24 649.847ZM835.105 650.774 829.575 649.992 827.137 649.427 827.589 647.479 829.984 648.034 829.898 648.018 835.385 648.794ZM821.292 648.072 819.965 647.765 813.566 645.709 814.178 643.805 820.537 645.848 820.457 645.826 821.744 646.124ZM807.859 643.627 801.525 641.016 800.43 640.461 801.335 638.677 802.394 639.214 802.323 639.181 808.621 641.778ZM795.079 637.747 792.844 636.614 788.085 633.716 789.126 632.007 793.851 634.886 793.784 634.848 795.984 635.963ZM782.982 630.421 776.941 626.056 776.463 625.648 777.762 624.127 778.209 624.509 778.146 624.459 784.153 628.8ZM771.901 621.751 769.87 620.017 766.066 616.164 767.49 614.759 771.264 618.582 771.201 618.524 773.199 620.231ZM761.951 611.681 757.869 606.713 756.942 605.325 758.605 604.214 759.504 605.561 759.445 605.482 763.496 610.411ZM753.609 600.336 753.092 599.563 749.777 593.195 751.55 592.272 754.841 598.591 754.786 598.497 755.272 599.225ZM747.495 587.523 746.377 584.545 745.369 579.673 747.328 579.268 748.32 584.064 748.276 583.915 749.368 586.82ZM741.683 577.306 745 569 749.655 576.638Z" fill="#156082"/><path d="M494.393 653.204 486.4 652.865 486.485 650.867 494.478 651.206ZM480.343 652.385 472.404 651.397 472.651 649.413 480.59 650.4ZM466.442 650.229 460.724 649.064 458.569 648.455 459.113 646.53 461.232 647.129 461.16 647.111 466.841 648.269ZM452.795 646.823 449.906 646.007 445.14 644.279 445.821 642.398 450.554 644.114 450.485 644.092 453.339 644.899ZM439.499 642.234 439.445 642.214 432.125 638.95 432.94 637.123 440.226 640.373 440.16 640.346 440.181 640.354ZM426.679 636.275 419.937 632.664 419.577 632.435 420.65 630.747 420.979 630.956 420.915 630.918 427.623 634.512ZM414.513 629.216 411.067 627.026 407.873 624.627 409.074 623.028 412.237 625.404 412.172 625.359 415.586 627.529ZM403.075 621.024 402.902 620.894 397.028 615.66 398.359 614.167 404.201 619.373 404.136 619.32 404.276 619.425ZM392.741 611.341 389.039 607.378 387.418 605.245 389.011 604.035 390.601 606.128 390.535 606.05 394.203 609.975ZM383.789 600.467 383.519 600.111 379.612 593.513 381.333 592.494 385.21 599.042 385.146 598.947 385.382 599.257ZM377.078 587.938 375.752 584.833 374.652 580.164 376.599 579.706 377.678 584.29 377.625 584.127 378.917 587.153ZM370.754 577.334 374 569 378.72 576.598Z" fill="#156082"/><path d="M691.375 47.0575 955.01 47.0575 955.01 82.2575 691.375 82.2575Z" fill="#7F7F7F" fill-rule="evenodd"/><path d="M955.01 47.0575 1175.34 47.0575 1175.34 82.2575 955.01 82.2575Z" fill="#7F7F7F" fill-rule="evenodd"/><path d="M691.375 82.2575 955.01 82.2575 955.01 117.458 691.375 117.458Z" fill="#E8E8E8" fill-rule="evenodd"/><path d="M955.01 82.2575 1175.34 82.2575 1175.34 117.458 955.01 117.458Z" fill="#E8E8E8" fill-rule="evenodd"/><path d="M955.01 46.3909 955.01 188.524" stroke="#000000" stroke-width="1.33333" stroke-linejoin="round" stroke-miterlimit="10" fill="none" fill-rule="evenodd"/><path d="M690.708 82.2575 1176 82.2575" stroke="#000000" stroke-width="1.33333" stroke-linejoin="round" stroke-miterlimit="10" fill="none" fill-rule="evenodd"/><path d="M690.708 117.458 1176 117.458" stroke="#000000" stroke-width="1.33333" stroke-linejoin="round" stroke-miterlimit="10" fill="none" fill-rule="evenodd"/><path d="M690.708 152.658 1176 152.658" stroke="#000000" stroke-width="1.33333" stroke-linejoin="round" stroke-miterlimit="10" fill="none" fill-rule="evenodd"/><path d="M691.375 46.3909 691.375 188.524" stroke="#000000" stroke-width="1.33333" stroke-linejoin="round" stroke-miterlimit="10" fill="none" fill-rule="evenodd"/><path d="M1175.34 46.3909 1175.34 188.524" stroke="#000000" stroke-width="1.33333" stroke-linejoin="round" stroke-miterlimit="10" fill="none" fill-rule="evenodd"/><path d="M690.708 47.0575 1176 47.0575" stroke="#000000" stroke-width="1.33333" stroke-linejoin="round" stroke-miterlimit="10" fill="none" fill-rule="evenodd"/><path d="M690.708 187.858 1176 187.858" stroke="#000000" stroke-width="1.33333" stroke-linejoin="round" stroke-miterlimit="10" fill="none" fill-rule="evenodd"/><g><text fill="#FFFFFF" font-family="Aptos,Aptos_MSFontService,sans-serif" font-weight="700" font-size="21" transform="translate(964.61 72)">Commande 0x03</text></g><g><text fill="#FFFFFF" font-family="Aptos,Aptos_MSFontService,sans-serif" font-weight="700" font-size="21" transform="translate(700.975 72)">ToDo</text></g><text fill="#FFFFFF" font-family="Aptos,Aptos_MSFontService,sans-serif" font-weight="700" font-size="21" transform="translate(753.935 72)">List Cappuccino</text><g><text font-family="Aptos,Aptos_MSFontService,sans-serif" font-weight="700" font-size="21" transform="translate(964.61 107)">Statut</text></g><g><text font-family="Aptos,Aptos_MSFontService,sans-serif" font-weight="700" font-size="21" transform="translate(700.975 107)">Etapes</text></g><g><text font-family="Aptos,Aptos_MSFontService,sans-serif" font-weight="400" font-size="21" transform="translate(964.61 142)">Fait</text></g><g><text font-family="Aptos,Aptos_MSFontService,sans-serif" font-weight="400" font-size="21" transform="translate(700.975 142)">1. Préparer Espresso</text></g><g><text font-family="Aptos,Aptos_MSFontService,sans-serif" font-weight="400" font-size="21" transform="translate(964.61 177)">A faire</text></g><g><text font-family="Aptos,Aptos_MSFontService,sans-serif" font-weight="400" font-size="21" transform="translate(700.975 177)">2. Ajouter Lait</text></g><path d="M0.0105818-0.999944 44.64-0.52766 88.9303 0.84931 132.522 3.07054 175.064 6.0756 195.837 7.8536 216.215 9.8048 236.158 11.9219 255.62 14.1974 274.56 16.6237 292.932 19.1935 310.695 21.8991 327.804 24.7331 344.216 27.688 359.888 30.7564 374.776 33.931 388.837 37.2042 402.028 40.569 414.306 44.0182 425.628 47.5448 435.952 51.1421 445.237 54.8043 453.44 58.5262 460.523 62.3047 466.447 66.1402 471.171 70.04 474.698 74.0733 475.287 75.6607 473.412 76.3567 472.887 74.9413 473.071 75.2516 469.719 71.4177 469.835 71.5307 465.218 67.7194 465.311 67.7876 459.472 64.0065 459.545 64.0494 452.527 60.3059 452.585 60.3343 444.433 56.636 444.48 56.6556 435.237 53.0101 435.275 53.0241 424.986 49.4389 425.017 49.4493 413.724 45.9319 413.751 45.9399 401.499 42.4978 401.522 42.504 388.353 39.1448 388.373 39.1498 374.331 35.881 374.35 35.885 359.479 32.7142 359.495 32.7175 343.839 29.6522 343.854 29.655 327.457 26.7026 327.47 26.705 310.375 23.8732 310.388 23.8753 292.637 21.1716 292.649 21.1733 274.288 18.6053 274.3 18.6068 255.372 16.1819 255.382 16.1832 235.931 13.909 235.941 13.9102 216.009 11.7942 216.02 11.7952 195.652 9.84497 195.662 9.84588 174.901 8.06894 174.916 8.0701 132.391 5.06626 132.41 5.06745 88.8384 2.84722 88.8582 2.84804 44.5881 1.47169 44.6086 1.47212-0.0105818 0.999944ZM477.682 73.4253 476.558 82.2988 470.134 76.076Z" fill="#156082" transform="matrix(1 0 0 -1 269 651.299)"/><text fill="#0F9ED5" font-family="Aptos Display,Aptos Display_MSFontService,sans-serif" font-weight="400" font-size="59" transform="translate(126.461 101)">Faire un cappuccino:</text><text fill="#0F9ED5" font-family="Aptos Display,Aptos Display_MSFontService,sans-serif" font-weight="400" font-size="59" transform="translate(171.441 164)">ToDo</text><text fill="#0F9ED5" font-family="Aptos Display,Aptos Display_MSFontService,sans-serif" font-weight="400" font-size="59" transform="translate(304.407 164)">List Pattern</text></g></svg>