<svg width="1280" height="720" xmlns="http://www.w3.org/2000/svg" xmlns:xlink="http://www.w3.org/1999/xlink" overflow="hidden"><g><rect x="0" y="0" width="1280" height="720" fill="#FFFFFF"/><path d="M40 59.0005C40 41.3271 54.3271 27 72.0004 27L390 27C407.673 27 422 41.3271 422 59.0005L422 187C422 204.673 407.673 219 390 219L72.0004 219C54.3271 219 40 204.673 40 187Z" stroke="#FFFFFF" stroke-width="2" stroke-miterlimit="8" fill="#FFFFFF" fill-rule="evenodd"/><text fill="#0F9ED5" font-family="Arial,Arial_MSFontService,sans-serif" font-weight="400" font-size="27" transform="translate(66.2983 101)">Event Modeling est une des</text><text fill="#0F9ED5" font-family="Arial,Arial_MSFontService,sans-serif" font-weight="400" font-size="27" transform="translate(71.3849 133)">approches de modélisation</text><text fill="#0F9ED5" font-family="Arial,Arial_MSFontService,sans-serif" font-weight="400" font-size="27" transform="translate(75.9649 165)">de systèmes d’information</text><path d="M448 59.0005C448 41.3271 462.327 27 480 27L798 27C815.673 27 830 41.3271 830 59.0005L830 187C830 204.673 815.673 219 798 219L480 219C462.327 219 448 204.673 448 187Z" stroke="#FFFFFF" stroke-width="2" stroke-miterlimit="8" fill="#FFFFFF" fill-rule="evenodd"/><text fill="#0F9ED5" font-family="Arial,Arial_MSFontService,sans-serif" font-weight="400" font-size="27" transform="translate(485.449 85)">Est collaborative, visuelle,</text><text fill="#0F9ED5" font-family="Arial,Arial_MSFontService,sans-serif" font-weight="400" font-size="27" transform="translate(564.036 117)">participative,</text><text fill="#0F9ED5" font-family="Arial,Arial_MSFontService,sans-serif" font-weight="400" font-size="27" transform="translate(480.116 149)">multidisciplinaire, détaillée,</text><text fill="#0F9ED5" font-family="Arial,Arial_MSFontService,sans-serif" font-weight="400" font-size="27" transform="translate(482.689 181)">orientée métier, UX et Dev</text><path d="M861 59.3338C861 41.4763 875.476 27 893.334 27L1210.67 27C1228.52 27 1243 41.4763 1243 59.3338L1243 188.666C1243 206.524 1228.52 221 1210.67 221L893.334 221C875.476 221 861 206.524 861 188.666Z" stroke="#FFFFFF" stroke-width="2" stroke-miterlimit="8" fill="#FFFFFF" fill-rule="evenodd"/><text fill="#0F9ED5" font-family="Arial,Arial_MSFontService,sans-serif" font-weight="400" font-size="27" transform="translate(917.482 70)">Et est adaptée pour de</text><text fill="#0F9ED5" font-family="Arial,Arial_MSFontService,sans-serif" font-weight="400" font-size="27" transform="translate(934.402 102)">nouveaux systèmes</text><text fill="#0F9ED5" font-family="Arial,Arial_MSFontService,sans-serif" font-weight="400" font-size="27" transform="translate(916.649 134)">d’information, pour des</text><text fill="#0F9ED5" font-family="Arial,Arial_MSFontService,sans-serif" font-weight="400" font-size="27" transform="translate(881.736 166)">applications à moderniser ou</text><text fill="#0F9ED5" font-family="Arial,Arial_MSFontService,sans-serif" font-weight="400" font-size="27" transform="translate(881.389 198)">pour effectuer des évolutions</text><rect x="34" y="306" width="386" height="378" fill="#E8E8E8"/><text font-family="Arial,Arial_MSFontService,sans-serif" font-weight="400" font-size="21" transform="translate(73.9277 414)">Très similaire que les approches</text><text font-family="Arial,Arial_MSFontService,sans-serif" font-weight="400" font-size="21" transform="translate(100.114 439)">modernes «énergétiques»:</text><text font-family="Arial,Arial_MSFontService,sans-serif" font-weight="400" font-size="21" transform="translate(139.034 465)">-</text><text font-family="Arial,Arial_MSFontService,sans-serif" font-weight="400" font-size="21" transform="translate(169.034 465)">Event</text><text font-family="Arial,Arial_MSFontService,sans-serif" font-weight="400" font-size="21" transform="translate(229.534 465)">Storming</text><text font-family="Arial,Arial_MSFontService,sans-serif" font-weight="400" font-size="21" transform="translate(119.614 490)">-</text><text font-family="Arial,Arial_MSFontService,sans-serif" font-weight="400" font-size="21" transform="translate(149.614 490)">Domain Storytelling</text><text font-family="Arial,Arial_MSFontService,sans-serif" font-weight="400" font-size="21" transform="translate(99.0343 542)">Beaucoup plus simple que:</text><text font-family="Arial,Arial_MSFontService,sans-serif" font-weight="400" font-size="21" transform="translate(189.448 567)">-</text><text font-family="Arial,Arial_MSFontService,sans-serif" font-weight="400" font-size="21" transform="translate(219.448 567)">UML</text><text font-family="Arial,Arial_MSFontService,sans-serif" font-weight="400" font-size="21" transform="translate(188.868 593)">-</text><text font-family="Arial,Arial_MSFontService,sans-serif" font-weight="400" font-size="21" transform="translate(218.868 593)">BPM</text><rect x="446" y="296" width="386" height="398" fill="#E8E8E8"/><text font-family="Arial,Arial_MSFontService,sans-serif" font-weight="400" font-size="21" transform="translate(471.313 375)">Avec les métiers et l’équipe projets,</text><text font-family="Arial,Arial_MSFontService,sans-serif" font-weight="400" font-size="21" transform="translate(470.619 401)">nous détaillons les processus pas à</text><text font-family="Arial,Arial_MSFontService,sans-serif" font-weight="400" font-size="21" transform="translate(568.366 426)">pas (les slices)</text><text font-family="Arial,Arial_MSFontService,sans-serif" font-weight="400" font-size="21" transform="translate(498.866 477)">Ces processus sont faits de 5</text><text font-family="Arial,Arial_MSFontService,sans-serif" font-weight="400" font-size="21" transform="translate(489.286 503)">éléments couvrant 4 patterns et</text><text font-family="Arial,Arial_MSFontService,sans-serif" font-weight="400" font-size="21" transform="translate(481.813 529)">suffisent pour décrire un système</text><text font-family="Arial,Arial_MSFontService,sans-serif" font-weight="400" font-size="21" transform="translate(478.199 554)">d’information de manière très clair</text><text font-family="Arial,Arial_MSFontService,sans-serif" font-weight="400" font-size="21" transform="translate(466.199 605)">Les règles métier sont couvertes par</text><text font-family="Arial,Arial_MSFontService,sans-serif" font-weight="400" font-size="21" transform="translate(574.286 631)">les tests BDD</text><rect x="861" y="306" width="386" height="378" fill="#E8E8E8"/><text font-family="Arial,Arial_MSFontService,sans-serif" font-weight="400" font-size="21" transform="translate(893.455 388)">Event Modeling est agnostique de</text><text font-family="Arial,Arial_MSFontService,sans-serif" font-weight="400" font-size="21" transform="translate(898.122 414)">l’architecture: no code,</text><text font-family="Arial,Arial_MSFontService,sans-serif" font-weight="400" font-size="21" transform="translate(1118.79 414)">low</text><text font-family="Arial,Arial_MSFontService,sans-serif" font-weight="400" font-size="21" transform="translate(1150.62 414)">-</text><text font-family="Arial,Arial_MSFontService,sans-serif" font-weight="400" font-size="21" transform="translate(1157.79 414)">code,</text><text font-family="Arial,Arial_MSFontService,sans-serif" font-weight="400" font-size="21" transform="translate(918.455 439)">progiciels ou développement</text><text font-family="Arial,Arial_MSFontService,sans-serif" font-weight="400" font-size="21" transform="translate(1006.12 465)">spécifique</text><text font-family="Arial,Arial_MSFontService,sans-serif" font-weight="400" font-size="21" transform="translate(897.622 542)">Dans le cadre de développement</text><text font-family="Arial,Arial_MSFontService,sans-serif" font-weight="400" font-size="21" transform="translate(886.769 567)">spécifique, il se marie avec l’</text><text font-family="Arial,Arial_MSFontService,sans-serif" font-weight="700" font-size="21" transform="translate(1163.31 567)">Event</text><path d="M1162.96 569.022 1220.96 569.022 1220.96 571.022 1162.96 571.022Z" fill-rule="evenodd"/><text font-family="Arial,Arial_MSFontService,sans-serif" font-weight="400" font-size="21" transform="translate(871.969 593)">Sourcing, Vertical</text><text font-family="Arial,Arial_MSFontService,sans-serif" font-weight="700" font-size="21" transform="translate(1043.79 593)">Slice</text><text font-family="Arial,Arial_MSFontService,sans-serif" font-weight="400" font-size="21" transform="translate(1098.44 593)">Architecture et</text><path d="M1043.96 595.022 1093.96 595.022 1093.96 597.022 1043.96 597.022Z" fill-rule="evenodd"/><text font-family="Arial,Arial_MSFontService,sans-serif" font-weight="400" font-size="21" transform="translate(874.382 618)">l’IA (le modèle est le</text><text font-family="Arial,Arial_MSFontService,sans-serif" font-weight="700" font-size="21" transform="translate(1071.2 618)">contexte</text><text font-family="Arial,Arial_MSFontService,sans-serif" font-weight="400" font-size="21" transform="translate(1158.87 618)">, l’IA est</text><path d="M1070.96 620.022 1158.96 620.022 1158.96 622.022 1070.96 622.022Z" fill-rule="evenodd"/><text font-family="Arial,Arial_MSFontService,sans-serif" font-weight="400" font-size="21" transform="translate(965.622 644)">friand de contexte)</text><rect x="35" y="246" width="385" height="60" fill="#FFC000"/><text font-family="Arial,Arial_MSFontService,sans-serif" font-weight="700" font-size="24" transform="translate(85.2243 285)">C’est une des approches</text><rect x="448" y="246" width="382" height="61" stroke="#0F9ED5" stroke-width="2" stroke-miterlimit="8" fill="#0F9ED5"/><text font-family="Arial,Arial_MSFontService,sans-serif" font-weight="700" font-size="24" transform="translate(468.199 285)">Simple, Explicite et Holistique</text><rect x="861" y="246" width="385" height="61" stroke="#4EA72E" stroke-width="2" stroke-miterlimit="8" fill="#4EA72E"/><text font-family="Arial,Arial_MSFontService,sans-serif" font-weight="700" font-size="24" transform="translate(911.586 285)">Agnostique et Pertinente</text><path d="M426 104 463 124 426 144Z" stroke="#FFFFFF" stroke-width="2" stroke-miterlimit="8" fill="#CAEEFB" fill-rule="evenodd"/><path d="M832 104 868 124 832 144Z" stroke="#FFFFFF" stroke-width="2" stroke-miterlimit="8" fill="#CAEEFB" fill-rule="evenodd"/></g></svg>