<svg width="1280" height="720" xmlns="http://www.w3.org/2000/svg" xmlns:xlink="http://www.w3.org/1999/xlink" overflow="hidden"><g><rect x="0" y="0" width="1280" height="720" fill="#FFFFFF"/><path d="M410 523.334C410 513.761 417.761 506 427.334 506L793.666 506C803.239 506 811 513.761 811 523.334L811 592.666C811 602.239 803.239 610 793.666 610L427.334 610C417.761 610 410 602.239 410 592.666Z" stroke="#000000" stroke-width="6" stroke-miterlimit="8" fill="none" fill-rule="evenodd"/><text fill="#0F9ED5" font-family="Aptos Display,Aptos Display_MSFontService,sans-serif" font-weight="400" font-size="59" transform="translate(402.5 124)">Description Visuelle</text><path d="M74 275.167C74 267.895 79.8951 262 87.167 262L263.833 262C271.105 262 277 267.895 277 275.167L277 327.833C277 335.105 271.105 341 263.833 341L87.167 341C79.8951 341 74 335.105 74 327.833Z" fill="#FFC000" fill-rule="evenodd"/><text font-family="Aptos,Aptos_MSFontService,sans-serif" font-weight="700" font-size="24" transform="translate(105.725 295)">Client vérifié</text><text font-family="Aptos,Aptos_MSFontService,sans-serif" font-weight="400" font-size="24" transform="translate(106.025 324)">cleintId</text><text font-family="Aptos,Aptos_MSFontService,sans-serif" font-weight="400" font-size="24" transform="translate(183.858 324)">: 0x01</text><text fill="#0F9ED5" font-family="Aptos,Aptos_MSFontService,sans-serif" font-weight="400" font-size="24" transform="translate(237.552 178)">Exemple</text><text fill="#0F9ED5" font-family="Aptos,Aptos_MSFontService,sans-serif" font-weight="400" font-size="24" transform="translate(326.666 178)">:</text><text fill="#0F9ED5" font-family="Aptos,Aptos_MSFontService,sans-serif" font-weight="400" font-size="24" transform="translate(338.332 178)">Quand l’identité d’un client est «vérifié», alors un compte est «créé»</text><path d="M237.572 178.997 326.573 178.997 326.573 179.997 237.572 179.997Z" fill="#0F9ED5" fill-rule="evenodd"/><path d="M879 275.167C879 267.895 884.895 262 892.167 262L1068.83 262C1076.1 262 1082 267.895 1082 275.167L1082 327.833C1082 335.105 1076.1 341 1068.83 341L892.167 341C884.895 341 879 335.105 879 327.833Z" fill="#FFC000" fill-rule="evenodd"/><text font-family="Aptos,Aptos_MSFontService,sans-serif" font-weight="700" font-size="24" transform="translate(910.236 283)">Compte créé</text><text font-family="Aptos,Aptos_MSFontService,sans-serif" font-weight="400" font-size="21" transform="translate(907.743 309)">CompteId</text><text font-family="Aptos,Aptos_MSFontService,sans-serif" font-weight="400" font-size="21" transform="translate(999.97 309)">:</text><text font-family="Aptos,Aptos_MSFontService,sans-serif" font-weight="400" font-size="21" transform="translate(1010.47 309)">0x</text><text font-family="Aptos,Aptos_MSFontService,sans-serif" font-weight="400" font-size="21" transform="translate(1031.18 309)">aa</text><text font-family="Aptos,Aptos_MSFontService,sans-serif" font-weight="400" font-size="21" transform="translate(917.376 335)">ClientId</text><text font-family="Aptos,Aptos_MSFontService,sans-serif" font-weight="400" font-size="21" transform="translate(990.21 335)">: 0x01</text><path d="M879 361.334C879 353.97 884.97 348 892.334 348L1068.67 348C1076.03 348 1082 353.97 1082 361.334L1082 414.666C1082 422.03 1076.03 428 1068.67 428L892.334 428C884.97 428 879 422.03 879 414.666Z" fill="#FFC000" fill-rule="evenodd"/><text font-family="Aptos,Aptos_MSFontService,sans-serif" font-weight="700" font-size="24" transform="translate(910.236 370)">Compte créé</text><text font-family="Aptos,Aptos_MSFontService,sans-serif" font-weight="400" font-size="21" transform="translate(907.41 396)">CompteId</text><text font-family="Aptos,Aptos_MSFontService,sans-serif" font-weight="400" font-size="21" transform="translate(999.636 396)">:</text><text font-family="Aptos,Aptos_MSFontService,sans-serif" font-weight="400" font-size="21" transform="translate(1010.14 396)">0x</text><text font-family="Aptos,Aptos_MSFontService,sans-serif" font-weight="400" font-size="21" transform="translate(1030.84 396)">ab</text><text font-family="Aptos,Aptos_MSFontService,sans-serif" font-weight="400" font-size="21" transform="translate(917.376 422)">ClientId</text><text font-family="Aptos,Aptos_MSFontService,sans-serif" font-weight="400" font-size="21" transform="translate(990.21 422)">: 0x02</text><path d="M74 361.334C74 353.97 79.9696 348 87.3335 348L263.666 348C271.03 348 277 353.97 277 361.334L277 414.666C277 422.03 271.03 428 263.666 428L87.3335 428C79.9696 428 74 422.03 74 414.666Z" fill="#FFC000" fill-rule="evenodd"/><text font-family="Aptos,Aptos_MSFontService,sans-serif" font-weight="700" font-size="24" transform="translate(108.938 381)">Client</text><text font-family="Aptos,Aptos_MSFontService,sans-serif" font-weight="700" font-size="24" transform="translate(180.105 381)">vérfié</text><text font-family="Aptos,Aptos_MSFontService,sans-serif" font-weight="400" font-size="24" transform="translate(104.025 410)">ClientId</text><text font-family="Aptos,Aptos_MSFontService,sans-serif" font-weight="400" font-size="24" transform="translate(185.858 410)">:</text><text font-family="Aptos,Aptos_MSFontService,sans-serif" font-weight="400" font-size="24" transform="translate(197.525 410)">0x02</text><path d="M74 448.167C74 440.895 79.8951 435 87.167 435L263.833 435C271.105 435 277 440.895 277 448.167L277 500.833C277 508.105 271.105 514 263.833 514L87.167 514C79.8951 514 74 508.105 74 500.833Z" fill="#FFC000" fill-rule="evenodd"/><text font-family="Aptos,Aptos_MSFontService,sans-serif" font-weight="700" font-size="24" transform="translate(108.938 468)">Client</text><text font-family="Aptos,Aptos_MSFontService,sans-serif" font-weight="700" font-size="24" transform="translate(180.105 468)">vérfié</text><text font-family="Aptos,Aptos_MSFontService,sans-serif" font-weight="400" font-size="24" transform="translate(104.025 497)">ClientId</text><text font-family="Aptos,Aptos_MSFontService,sans-serif" font-weight="400" font-size="24" transform="translate(185.858 497)">: 0x03</text><path d="M74 534.334C74 526.97 79.9696 521 87.3335 521L263.666 521C271.03 521 277 526.97 277 534.334L277 587.666C277 595.03 271.03 601 263.666 601L87.3335 601C79.9696 601 74 595.03 74 587.666Z" fill="#FFC000" fill-rule="evenodd"/><text font-family="Aptos,Aptos_MSFontService,sans-serif" font-weight="700" font-size="24" transform="translate(108.938 554)">Client</text><text font-family="Aptos,Aptos_MSFontService,sans-serif" font-weight="700" font-size="24" transform="translate(180.105 554)">vérfié</text><text font-family="Aptos,Aptos_MSFontService,sans-serif" font-weight="400" font-size="24" transform="translate(104.025 583)">ClientId</text><text font-family="Aptos,Aptos_MSFontService,sans-serif" font-weight="400" font-size="24" transform="translate(185.858 583)">: 0x04</text><text font-family="Aptos,Aptos_MSFontService,sans-serif" font-weight="700" font-size="24" transform="translate(550.507 347)">ToDo</text><text font-family="Aptos,Aptos_MSFontService,sans-serif" font-weight="700" font-size="24" transform="translate(610.253 347)">List</text><text font-family="Aptos,Aptos_MSFontService,sans-serif" font-weight="700" font-size="24" transform="translate(505.473 376)">«Compte à créer»</text><path d="M428.189 400.378 570.788 400.378 570.788 439.311 428.189 439.311Z" fill="#7F7F7F" fill-rule="evenodd"/><path d="M570.788 400.378 688.302 400.378 688.302 439.311 570.788 439.311Z" fill="#7F7F7F" fill-rule="evenodd"/><path d="M688.302 400.378 792.113 400.378 792.113 439.311 688.302 439.311Z" fill="#7F7F7F" fill-rule="evenodd"/><path d="M570.788 399.711 570.788 595.711" stroke="#000000" stroke-width="1.33333" stroke-linejoin="round" stroke-miterlimit="10" fill="none" fill-rule="evenodd"/><path d="M688.302 399.711 688.302 595.711" stroke="#000000" stroke-width="1.33333" stroke-linejoin="round" stroke-miterlimit="10" fill="none" fill-rule="evenodd"/><path d="M427.522 439.311 792.78 439.311" stroke="#000000" stroke-width="1.33333" stroke-linejoin="round" stroke-miterlimit="10" fill="none" fill-rule="evenodd"/><path d="M427.522 478.245 792.78 478.245" stroke="#000000" stroke-width="1.33333" stroke-linejoin="round" stroke-miterlimit="10" fill="none" fill-rule="evenodd"/><path d="M427.522 517.178 792.78 517.178" stroke="#000000" stroke-width="1.33333" stroke-linejoin="round" stroke-miterlimit="10" fill="none" fill-rule="evenodd"/><path d="M427.522 556.111 792.78 556.111" stroke="#000000" stroke-width="1.33333" stroke-linejoin="round" stroke-miterlimit="10" fill="none" fill-rule="evenodd"/><path d="M428.189 399.711 428.189 595.711" stroke="#000000" stroke-width="1.33333" stroke-linejoin="round" stroke-miterlimit="10" fill="none" fill-rule="evenodd"/><path d="M792.113 399.711 792.113 595.711" stroke="#000000" stroke-width="1.33333" stroke-linejoin="round" stroke-miterlimit="10" fill="none" fill-rule="evenodd"/><path d="M427.522 400.378 792.78 400.378" stroke="#000000" stroke-width="1.33333" stroke-linejoin="round" stroke-miterlimit="10" fill="none" fill-rule="evenodd"/><path d="M427.522 595.045 792.78 595.045" stroke="#000000" stroke-width="1.33333" stroke-linejoin="round" stroke-miterlimit="10" fill="none" fill-rule="evenodd"/><g><text font-family="Aptos,Aptos_MSFontService,sans-serif" font-weight="700" font-size="21" transform="translate(697.902 425)">A faire</text></g><text font-family="Aptos,Aptos_MSFontService,sans-serif" font-weight="700" font-size="21" transform="translate(763.475 425)">?</text><g><text font-family="Aptos,Aptos_MSFontService,sans-serif" font-weight="700" font-size="21" transform="translate(580.388 425)">CompteId</text></g><g><text font-family="Aptos,Aptos_MSFontService,sans-serif" font-weight="700" font-size="21" transform="translate(437.789 425)">ClientId</text></g><text font-family="Aptos,Aptos_MSFontService,sans-serif" font-style="italic" font-weight="400" font-size="21" transform="translate(723.004 464)">Fait</text><path d="M722.958 457.111 739.958 457.111 756.958 457.111 756.958 458.111 739.958 458.111 722.958 458.111Z" fill-rule="evenodd"/><g><text font-family="Aptos,Aptos_MSFontService,sans-serif" font-style="italic" font-weight="400" font-size="21" transform="translate(580.388 464)">0x</text></g><text font-family="Aptos,Aptos_MSFontService,sans-serif" font-style="italic" font-weight="400" font-size="21" transform="translate(601.095 464)">aa</text><path d="M580.388 457.111 601.888 457.111 623.388 457.111 623.388 458.111 601.888 458.111 580.388 458.111Z" fill-rule="evenodd"/><text font-family="Aptos,Aptos_MSFontService,sans-serif" font-style="italic" font-weight="400" font-size="21" transform="translate(477.738 464)">0x01</text><path d="M477.825 457.111 499.325 457.111 520.825 457.111 520.825 458.111 499.325 458.111 477.825 458.111Z" fill-rule="evenodd"/><text font-family="Aptos,Aptos_MSFontService,sans-serif" font-style="italic" font-weight="400" font-size="21" transform="translate(723.004 503)">Fait</text><path d="M722.958 496.045 739.958 496.045 756.958 496.045 756.958 497.045 739.958 497.045 722.958 497.045Z" fill-rule="evenodd"/><g><text font-family="Aptos,Aptos_MSFontService,sans-serif" font-style="italic" font-weight="400" font-size="21" transform="translate(580.388 503)">0x</text></g><text font-family="Aptos,Aptos_MSFontService,sans-serif" font-style="italic" font-weight="400" font-size="21" transform="translate(601.095 503)">ab</text><path d="M580.388 496.045 602.388 496.045 624.388 496.045 624.388 497.045 602.388 497.045 580.388 497.045Z" fill-rule="evenodd"/><text font-family="Aptos,Aptos_MSFontService,sans-serif" font-style="italic" font-weight="400" font-size="21" transform="translate(477.738 503)">0x02</text><path d="M477.825 496.045 499.325 496.045 520.825 496.045 520.825 497.045 499.325 497.045 477.825 497.045Z" fill-rule="evenodd"/><text font-family="Aptos,Aptos_MSFontService,sans-serif" font-weight="400" font-size="21" transform="translate(711.474 542)">A faire</text><text font-family="Aptos,Aptos_MSFontService,sans-serif" font-weight="400" font-size="21" transform="translate(477.738 542)">0x03</text><text font-family="Aptos,Aptos_MSFontService,sans-serif" font-weight="400" font-size="21" transform="translate(711.474 581)">A faire</text><text font-family="Aptos,Aptos_MSFontService,sans-serif" font-weight="400" font-size="21" transform="translate(477.738 581)">0x04</text><path d="M57 279.834C57 257.834 74.8344 240 96.8342 240L256.166 240C278.166 240 296 257.834 296 279.834L296 572.166C296 594.166 278.166 612 256.166 612L96.8342 612C74.8344 612 57 594.166 57 572.166Z" stroke="#FFC000" stroke-width="2" stroke-miterlimit="8" fill="none" fill-rule="evenodd"/><path d="M861 282.667C861 262.417 877.417 246 897.667 246L1063.33 246C1083.58 246 1100 262.417 1100 282.667L1100 429.333C1100 449.583 1083.58 466 1063.33 466L897.667 466C877.417 466 861 449.583 861 429.333Z" stroke="#FFC000" stroke-width="2" stroke-miterlimit="8" fill="none" fill-rule="evenodd"/><path d="M986.021 237.522 985.823 236.397 986.119 237.266 985.531 236.144 985.917 236.712 984.953 235.594 985.3 235.935 983.973 234.824 984.367 235.103 980.671 232.909 981.022 233.087 976.022 230.945 976.253 231.033 970.049 228.962 970.213 229.012 962.906 227.028 963.03 227.059 954.719 225.181 954.819 225.202 945.605 223.447 945.689 223.462 935.673 221.848 935.746 221.859 925.028 220.403 925.094 220.411 913.773 219.131 913.836 219.137 902.013 218.05 902.073 218.055 889.85 217.179 889.909 217.183 877.384 216.535 877.476 216.539 851.924 216 852.089 215.998 839.263 216.432 839.458 216.419 826.733 217.682 826.918 217.657 814.393 219.695 814.571 219.66 802.347 222.416 802.521 222.372 790.699 225.792 790.871 225.736 779.55 229.765 779.723 229.697 769.004 234.278 769.182 234.195 759.165 239.275 759.351 239.172 750.137 244.694 750.333 244.566 742.022 250.475 742.232 250.311 734.924 256.552 735.149 256.339 728.945 262.856 729.182 262.575 724.182 269.314 724.537 268.692 721.781 275.229 716.252 272.899 719.148 266.029 724.473 258.853 730.91 252.09 738.437 245.662 746.952 239.608 756.357 233.971 766.556 228.8 777.451 224.143 788.944 220.053 800.94 216.583 813.34 213.787 826.047 211.72 838.963 210.438 851.969 209.999 877.648 210.541 890.249 211.192 902.532 212.072 914.416 213.165 925.802 214.453 936.591 215.918 946.686 217.545 955.992 219.318 964.415 221.221 971.868 223.244 978.271 225.381 983.565 227.649 987.639 230.068 989.339 231.492 990.687 233.056 991.65 234.896 991.93 236.478ZM728.491 273.584 715 288.516 711.149 268.764Z" fill="#FFC000"/><path d="M0.52164 2.9543-0.602987 3.15288 0.266325 2.85663-0.856105 3.44399-0.288485 3.05838-1.40652 4.022-1.06499 3.67557-2.17644 5.00289-1.89699 4.60852-4.09132 8.30412-3.91318 7.95365-6.05477 12.9536-5.96686 12.7224-8.03814 18.9263-7.98848 18.7621-9.97186 26.0697-9.94089 25.9451-11.8188 34.256-11.798 34.1561-13.5529 43.37-13.5381 43.286-15.1524 53.3026-15.1415 53.229-16.5975 63.9479-16.5892 63.8813-17.8695 75.2021-17.8631 75.1397-18.95 86.9622-18.9451 86.902-19.821 99.1259-19.8174 99.0663-20.4648 111.591-20.4615 111.5-21.0005 137.051-21.0016 136.886-20.5683 149.712-20.5813 149.517-19.3184 162.243-19.3426 162.058-17.3054 174.582-17.3399 174.404-14.5837 186.628-14.6284 186.454-11.2084 198.277-11.2638 198.105-7.23545 209.426-7.30326 209.252-2.72178 219.971-2.80471 219.794 2.27457 229.81 2.17221 229.625 7.69396 238.839 7.56568 238.642 13.4746 246.953 13.3109 246.743 19.5517 254.051 19.3388 253.826 25.8562 260.03 25.5753 259.794 32.3139 264.794 31.6915 264.439 38.2295 267.194 35.8991 272.723 29.0285 269.827 21.8525 264.503 15.0897 258.065 8.66178 250.539 2.60768 242.024-3.02883 232.618-8.20038 222.42-12.857 211.525-16.9469 200.031-20.417 188.035-23.213 175.635-25.2798 162.929-26.5616 150.013-27.0009 137.007-26.4592 111.327-25.8078 98.7268-24.9275 86.443-23.835 74.5591-22.5474 63.1736-21.0819 52.3846-19.4549 42.2893-17.6825 32.9834-15.7792 24.56-13.7565 17.1077-11.6189 10.705-9.35098 5.4102-6.9323 1.33675-5.50852-0.363565-3.94402-1.71198-2.10387-2.67493-0.52164-2.9543ZM36.5839 260.484 51.5164 273.976 31.7637 277.827Z" fill="#FFC000" transform="matrix(1.83697e-16 1 1 -1.83697e-16 205 238)"/><g><g><g><path d="M965 596C958.4 596 953 590.6 953 584 953 577.4 958.4 572 965 572 971.6 572 977 577.4 977 584 977 590.6 971.6 596 965 596ZM992 576.5C991.4 574.3 990.5 572.2 989.4 570.3L991.9 562.8 986.2 557.1 978.7 559.6C976.7 558.5 974.6 557.6 972.4 557L969 550 961 550 957.5 557C955.3 557.6 953.2 558.5 951.3 559.6L943.8 557.1 938.1 562.8 940.6 570.3C939.5 572.3 938.6 574.4 938 576.6L931 580 931 588 938 591.5C938.6 593.7 939.5 595.8 940.6 597.7L938.1 605.2 943.8 610.9 951.3 608.4C953.3 609.5 955.4 610.4 957.6 611L961.1 618 969.1 618 972.6 611C974.8 610.4 976.9 609.5 978.8 608.4L986.3 610.9 992 605.2 989.5 597.7C990.6 595.7 991.5 593.6 992.1 591.4L999.1 587.9 999.1 579.9 992 576.5Z"/></g></g></g><text font-family="Aptos,Aptos_MSFontService,sans-serif" font-weight="700" font-size="24" transform="translate(930.224 522)">ToDo</text><text font-family="Aptos,Aptos_MSFontService,sans-serif" font-weight="700" font-size="24" transform="translate(989.971 522)">Automation</text><path d="M930.224 523.112 977.224 523.112 1024.22 523.112 1071.22 523.112 1118.22 523.112 1118.22 524.112 1071.22 524.112 1024.22 524.112 977.224 524.112 930.224 524.112Z" fill-rule="evenodd"/><path d="M0.467536-2.96334 4.59132-2.31272 8.94696-0.293803 13.0218 2.80183 16.8513 6.83488 20.4656 11.7181 23.8739 17.3825 27.0698 23.7627 30.0379 30.7922 32.757 38.4032 35.2031 46.526 37.3502 55.0901 39.1711 64.0243 40.6378 73.2568 41.7248 82.7423 41.939 86.8803 35.947 87.1905 35.7376 83.1459 35.7531 83.3324 34.6842 74.0046 34.7018 74.1338 33.2556 65.0302 33.2789 65.1586 31.4844 56.3539 31.514 56.4843 29.4003 48.0532 29.4377 48.1888 27.0338 40.206 27.0812 40.3503 24.4161 32.8906 24.4775 33.0482 21.5802 26.1862 21.6617 26.3629 18.5612 20.1735 18.673 20.3765 15.3984 14.9343 15.5576 15.1724 12.1379 10.5521 12.3738 10.8331 8.83805 7.10944 9.19875 7.43254 5.57594 4.6803 6.12912 5.01329 2.44826 3.30714 3.24234 3.54866-0.467536 2.96334ZM47.7976 83.6301 39.6236 102.02 29.8162 84.4468Z" transform="matrix(-1.83697e-16 -1 -1 1.83697e-16 921.02 582.624)"/><text font-family="Aptos,Aptos_MSFontService,sans-serif" font-weight="700" font-size="21" transform="translate(1021.22 568)">Cas à traiter: 0x03, 0x04</text><text font-family="Aptos,Aptos_MSFontService,sans-serif" font-weight="400" font-size="21" transform="translate(1021.22 593)">{</text><text font-family="Aptos,Aptos_MSFontService,sans-serif" font-weight="400" font-size="21" transform="translate(1034.22 619)">créerComptePour</text><text font-family="Aptos,Aptos_MSFontService,sans-serif" font-weight="400" font-size="21" transform="translate(1199.02 619)">: 0x03</text><text font-family="Aptos,Aptos_MSFontService,sans-serif" font-weight="400" font-size="21" transform="translate(1034.22 644)">créerComptePour</text><text font-family="Aptos,Aptos_MSFontService,sans-serif" font-weight="400" font-size="21" transform="translate(1199.02 644)">: 0x04</text><text font-family="Aptos,Aptos_MSFontService,sans-serif" font-weight="400" font-size="21" transform="translate(1021.22 670)">}</text><text font-family="Aptos,Aptos_MSFontService,sans-serif" font-weight="700" font-size="21" transform="translate(1021.22 696)">Nouveaux cas à traiter ?</text></g></svg>